<?xml version="1.0" encoding="UTF-8" standalone="no"?>
<!-- Created with Inkscape (http://www.inkscape.org/) -->

<svg
   width="82.860039mm"
   height="257.58975mm"
   viewBox="0 0 82.860039 257.58975"
   version="1.1"
   id="svg1"
   xml:space="preserve"
   inkscape:export-filename="jumbo.svg"
   inkscape:export-xdpi="96"
   inkscape:export-ydpi="96"
   xmlns:inkscape="http://www.inkscape.org/namespaces/inkscape"
   xmlns:sodipodi="http://sodipodi.sourceforge.net/DTD/sodipodi-0.dtd"
   xmlns="http://www.w3.org/2000/svg"
   xmlns:svg="http://www.w3.org/2000/svg"><sodipodi:namedview
     id="namedview1"
     pagecolor="#ffffff"
     bordercolor="#111111"
     borderopacity="1"
     inkscape:showpageshadow="0"
     inkscape:pageopacity="0"
     inkscape:pagecheckerboard="1"
     inkscape:deskcolor="#d1d1d1"
     inkscape:document-units="mm"
     showguides="true"><sodipodi:guide
       position="-40.541189,229.19967"
       orientation="1,0"
       id="guide60"
       inkscape:locked="false" /></sodipodi:namedview><defs
     id="defs1"><inkscape:path-effect
       effect="powerstroke"
       id="path-effect50"
       is_visible="true"
       lpeversion="1.3"
       scale_width="1"
       interpolator_type="CentripetalCatmullRom"
       interpolator_beta="0.75"
       start_linecap_type="round"
       end_linecap_type="round"
       offset_points="25.159364,0.013904311"
       linejoin_type="spiro"
       miter_limit="4"
       not_jump="true"
       sort_points="true"
       message="&lt;b&gt;Ctrl + click&lt;/b&gt; on existing node and move it" /><inkscape:path-effect
       effect="simplify"
       id="path-effect49"
       is_visible="true"
       lpeversion="1.3"
       threshold="0.012"
       steps="1"
       smooth_angles="0"
       helper_size="0"
       simplify_individual_paths="false"
       simplify_just_coalesce="false"
       step="1" /><inkscape:path-effect
       effect="powerstroke"
       id="path-effect46"
       is_visible="true"
       lpeversion="1.3"
       scale_width="1"
       interpolator_type="CentripetalCatmullRom"
       interpolator_beta="0.75"
       start_linecap_type="round"
       end_linecap_type="round"
       offset_points="6.9089946,0.013904311"
       linejoin_type="spiro"
       miter_limit="4"
       not_jump="true"
       sort_points="true"
       message="&lt;b&gt;Ctrl + click&lt;/b&gt; on existing node and move it" /><inkscape:path-effect
       effect="simplify"
       id="path-effect45"
       is_visible="true"
       lpeversion="1.3"
       threshold="0.012"
       steps="1"
       smooth_angles="0"
       helper_size="0"
       simplify_individual_paths="false"
       simplify_just_coalesce="false"
       step="1" /><inkscape:path-effect
       effect="powerstroke"
       id="path-effect44"
       is_visible="true"
       lpeversion="1.3"
       scale_width="1"
       interpolator_type="CentripetalCatmullRom"
       interpolator_beta="0.75"
       start_linecap_type="round"
       end_linecap_type="round"
       offset_points="4.1822964,0.013904311"
       linejoin_type="spiro"
       miter_limit="4"
       not_jump="true"
       sort_points="true"
       message="&lt;b&gt;Ctrl + click&lt;/b&gt; on existing node and move it" /><inkscape:path-effect
       effect="simplify"
       id="path-effect43"
       is_visible="true"
       lpeversion="1.3"
       threshold="0.012"
       steps="1"
       smooth_angles="0"
       helper_size="0"
       simplify_individual_paths="false"
       simplify_just_coalesce="false"
       step="1" /><inkscape:path-effect
       effect="powerstroke"
       id="path-effect42"
       is_visible="true"
       lpeversion="1.3"
       scale_width="1"
       interpolator_type="CentripetalCatmullRom"
       interpolator_beta="0.75"
       start_linecap_type="round"
       end_linecap_type="round"
       offset_points="4.3857957,0.0069521554"
       linejoin_type="spiro"
       miter_limit="4"
       not_jump="true"
       sort_points="true"
       message="&lt;b&gt;Ctrl + click&lt;/b&gt; on existing node and move it" /><inkscape:path-effect
       effect="simplify"
       id="path-effect41"
       is_visible="true"
       lpeversion="1.3"
       threshold="0.012"
       steps="1"
       smooth_angles="0"
       helper_size="0"
       simplify_individual_paths="false"
       simplify_just_coalesce="false"
       step="1" /><inkscape:path-effect
       effect="powerstroke"
       id="path-effect36"
       is_visible="true"
       lpeversion="1.3"
       scale_width="1"
       interpolator_type="CentripetalCatmullRom"
       interpolator_beta="0.75"
       start_linecap_type="round"
       end_linecap_type="round"
       offset_points="5.4338277,0.019663665"
       linejoin_type="spiro"
       miter_limit="4"
       not_jump="true"
       sort_points="true"
       message="&lt;b&gt;Ctrl + click&lt;/b&gt; on existing node and move it" /><inkscape:path-effect
       effect="simplify"
       id="path-effect35"
       is_visible="true"
       lpeversion="1.3"
       threshold="0.012"
       steps="1"
       smooth_angles="0"
       helper_size="0"
       simplify_individual_paths="false"
       simplify_just_coalesce="false"
       step="1" /></defs><g
     inkscape:groupmode="layer"
     id="layer2"
     inkscape:label="sketch"
     transform="translate(-51.86746,-26.270641)"><g
       id="g54"
       transform="matrix(2.8355841,0,0,2.8355841,-163.00883,-141.00327)"><path
         style="fill:#ffffff;fill-opacity:1;stroke-width:0.264583"
         d="m 80.935644,61.822562 1.730404,-0.235963 1.33713,1.022511 0.629235,1.887712 -0.314616,2.123676 -1.179822,1.651746 -1.101167,0.07865 0.05425,-1.665822 -0.917686,-1.167958 -0.473689,-1.492221 z"
         id="path10" /><path
         style="fill:#333333;fill-opacity:1;stroke-width:0.264583"
         d="m 79.991788,64.418167 -0.181044,1.571694 -0.80645,1.001109 -0.667406,0.222469 0.667406,0.500555 0.695214,-0.194659 0.862071,-1.362623 -0.01552,-0.139147 -0.200325,-1.796036 -0.353946,0.196638"
         id="path11"
         sodipodi:nodetypes="cccccccccc" /><path
         style="fill:#ffc805;fill-opacity:1;stroke-width:0.264583"
         d="m 99.498143,77.317525 -0.786545,1.651749 -0.865203,-0.943856 -5.899097,-3.539461 -0.157308,0.707892 h -1.179822 l -1.022509,1.415786 -1.415788,0.550582 -0.943856,1.101164 -1.101164,0.393274 -0.70789,1.179819 -1.887712,1.415786 -1.809057,-1.101167 -1.33713,-1.887712 -0.550582,-1.887712 -0.385247,4.326011 0.542555,1.612422 1.061839,1.022511 2.79224,2.04502 0.786546,1.101167 1.179822,0.629237 1.258474,0.07865 0.511255,-0.983181 0.865201,0.235963 0.983183,-1.730404 0.275291,-1.179819 1.769732,0.668565 1.2978,-0.668565 -0.07865,-2.280989 1.061836,-0.432597 0.03933,-1.887712 1.415786,-0.353946 1.67377,1.345975 1.223581,2.780861 1.001109,0.83426 0.667406,1.501664 0.889881,1.6129 0.22247,-5.116785 z"
         id="path12" /><path
         style="fill:#00376a;fill-opacity:1;stroke-width:0.264583"
         d="m 79.991788,82.312102 -0.01418,3.060366 1.223582,3.058949 1.39043,2.280308 1.557282,0.166852 -3.095263,-7.543964 -1.061839,-1.022511"
         id="path13" /><path
         style="fill:#00237d;fill-opacity:1;stroke-width:0.264583"
         d="m 81.053627,83.334613 3.095273,7.543964 2.391532,3.559503 1.779751,0.834258 0.667406,-1.557282 -2.725245,-3.726355 -0.450109,-2.878664 -1.179822,-0.629237 -0.786546,-1.101167 z"
         id="path14" /><path
         style="fill:#00297d;fill-opacity:1;stroke-width:0.264583"
         d="m 88.447165,86.441467 -0.865201,-0.235961 -0.511257,0.983181 -1.258472,-0.07865 0.450109,2.878664 2.725245,3.726355 2.947715,1.835369 2.502776,0.444937 -4.268621,-5.839809 -1.722294,-3.714086"
         id="path15" /><path
         style="fill:#00357d;fill-opacity:1;stroke-width:0.264583"
         d="m 94.43808,95.995362 2.169073,0.667409 0.222469,-3.225803 -5.354251,-9.237157 -1.769734,-0.668565 -0.275291,1.179817 -0.983181,1.730404 1.722294,3.714086 4.268621,5.839809"
         id="path16" /><path
         style="fill:#00377d;fill-opacity:1;stroke-width:0.264583"
         d="m 100.22228,85.84521 -0.724137,13.43157 -1.556178,-4.004442 -0.389319,-6.896537 1.557285,-4.838705"
         id="path17" /><path
         style="fill:#00377d;fill-opacity:1;stroke-width:0.295367"
         d="m 93.55972,81.029859 3.182216,5.655685 1.139731,2.617932 1.772919,-5.29675 -1.13973,-0.913231 -1.393003,-3.044107 -1.905531,-1.473386 -1.611828,0.387449 z"
         id="path18" /><path
         style="fill:#5989d3;fill-opacity:1;stroke-width:0.264583"
         d="m 96.607155,96.662771 2.280308,5.895429 5.617337,5.1724 -5.006657,-8.45382 -1.556176,-4.004442 -0.389321,-6.896537 -0.723027,5.061167 -0.222464,3.225803"
         id="path20"
         sodipodi:nodetypes="cccccccc" /><path
         style="fill:#002f8e;fill-opacity:1;stroke-width:0.264583"
         d="m 93.756357,80.817658 -1.061836,0.432599 0.07865,2.280989 -1.2978,0.668565 5.354248,9.237157 0.723025,-5.061167 -0.810708,-1.690257 z"
         id="path19"
         sodipodi:nodetypes="cccccccc" /><path
         style="fill:#5996d3;fill-opacity:1;stroke-width:0.264583"
         d="m 87.430309,94.855209 1.890985,3.197989 5.672961,5.895432 2.558391,1.2792 3.337044,1.33481 -3.726363,-2.78086 -5.228021,-8.231357 -2.947715,-1.835367 -0.667406,1.557282 -0.889876,-0.417129"
         id="path21" /><path
         style="fill:#598ed3;fill-opacity:1;stroke-width:0.264583"
         d="m 91.935306,95.550423 2.502774,0.444939 2.169075,0.667409 2.280306,5.895429 5.617339,5.1724 -3.61511,-1.16796 -3.726365,-2.78086 c -2.229885,-3.51089 -5.05289,-7.898877 -5.687954,-8.898764"
         id="path22"
         sodipodi:nodetypes="cccccccc" /><path
         style="fill:#b80112;fill-opacity:1;stroke-width:0.264583"
         d="M 100.88969,106.56264 105,134.70496 v 9.89987 l -2.21933,-12.12456 -1.89098,-11.56838 -1.668523,-15.01666 z"
         id="path23" /><path
         style="fill:#ca0125;fill-opacity:0.886598;stroke-width:0.264583"
         d="m 89.70191,98.446469 0.803867,4.949931 1.810144,4.72747 -0.670726,-5.20425 0.30403,-2.13771"
         id="path24"
         sodipodi:nodetypes="ccccc" /><path
         style="fill:#0059ff;fill-opacity:1;stroke-width:0.264583"
         d="m 92.157771,101.00091 0.992405,1.03133 -0.06239,9.18545 -1.152485,-3.48709 -0.366699,-7.34196"
         id="path25" /><path
         style="fill:#ca0125;fill-opacity:0.886598;stroke-width:0.268649"
         d="m 93.150176,101.99355 v 13.04235 l 1.009822,1.20414 V 102.8919"
         id="path26"
         sodipodi:nodetypes="cccc" /><path
         style="fill:#b80112;fill-opacity:1;stroke-width:0.267813"
         d="m 94.159998,102.8919 0.611785,14.58772 0.945494,1.65252 -0.723024,-15.55644"
         id="path27" /><path
         style="fill:#b80112;fill-opacity:1;stroke-width:0.264583"
         d="m 94.994253,103.94863 1.279196,16.74079 c 0,0 1.279195,2.39154 1.279195,2.16907 0,-0.22247 -1.279197,-18.27026 -1.279197,-18.27026 z"
         id="path28" /><path
         style="fill:#0059ff;fill-opacity:1;stroke-width:0.264583"
         d="m 96.273447,104.58823 3.948833,37.01327 -2.669636,-36.37367 z"
         id="path29" /><path
         style="fill:#ca0125;fill-opacity:0.886598;stroke-width:0.264583"
         d="m 97.552644,105.22783 4.557936,38.59836 2.39422,6.00666 L 105,139.65489 99.221167,105.89523 Z"
         id="path30"
         sodipodi:nodetypes="cccccc" /><path
         style="fill:#ffffff;fill-opacity:1;stroke:none;stroke-width:0.265;stroke-dasharray:none;stroke-opacity:0.876289"
         d="M 85.812235,87.110037 83.531249,81.25026"
         id="path31" /><path
         d="m 85.871035,86.989319 c -4.19e-4,-0.003 -8.97e-4,-0.0064 -0.0015,-0.01067 -4.39e-4,-0.0031 -9.37e-4,-0.0066 -0.0015,-0.01071 -4.62e-4,-0.0032 -9.71e-4,-0.0067 -0.0015,-0.01071 -4.8e-4,-0.0033 -9.98e-4,-0.0068 -0.0016,-0.01071 -4.94e-4,-0.0033 -0.001,-0.0069 -0.0016,-0.01071 -2.3e-4,-0.0015 -4.61e-4,-0.0031 -6.99e-4,-0.0047 -2.84e-4,-0.0019 -5.86e-4,-0.0039 -9.06e-4,-0.006 -5.02e-4,-0.0033 -0.001,-0.0069 -0.0016,-0.01071 -5.2e-4,-0.0034 -0.0011,-0.0069 -0.0016,-0.01071 -5.33e-4,-0.0034 -0.0011,-0.007 -0.0017,-0.01071 -5.43e-4,-0.0035 -0.0011,-0.007 -0.0017,-0.01071 -5.52e-4,-0.0035 -0.0011,-0.007 -0.0017,-0.01071 -5.61e-4,-0.0035 -0.0011,-0.0071 -0.0017,-0.01071 -5.69e-4,-0.0035 -0.0011,-0.0071 -0.0017,-0.01071 -5.77e-4,-0.0035 -0.0012,-0.0071 -0.0018,-0.01071 -5.84e-4,-0.0035 -0.0012,-0.0071 -0.0018,-0.01072 -5.92e-4,-0.0035 -0.0012,-0.0071 -0.0018,-0.01072 -5.98e-4,-0.0035 -0.0012,-0.0071 -0.0018,-0.01072 -6.05e-4,-0.0035 -0.0012,-0.0071 -0.0018,-0.01072 -6.11e-4,-0.0035 -0.0012,-0.0071 -0.0019,-0.01072 -6.19e-4,-0.0035 -0.0012,-0.0071 -0.0019,-0.01072 -6.25e-4,-0.0035 -0.0013,-0.0071 -0.0019,-0.01072 -6.31e-4,-0.0036 -0.0013,-0.0071 -0.0019,-0.01072 -6.38e-4,-0.0036 -0.0013,-0.0071 -0.0019,-0.01072 -6.43e-4,-0.0036 -0.0013,-0.0071 -0.0019,-0.01072 -6.5e-4,-0.0036 -0.0013,-0.0071 -0.002,-0.01072 -6.55e-4,-0.0036 -0.0013,-0.0071 -0.002,-0.01072 -6.62e-4,-0.0036 -0.0013,-0.0071 -0.002,-0.01072 -6.68e-4,-0.0036 -0.0013,-0.0071 -0.002,-0.01072 -6.73e-4,-0.0036 -0.0013,-0.0071 -0.002,-0.01072 -6.8e-4,-0.0036 -0.0014,-0.0071 -0.002,-0.01072 -6.85e-4,-0.0036 -0.0014,-0.0071 -0.0021,-0.01073 -6.91e-4,-0.0036 -0.0014,-0.0071 -0.0021,-0.01073 -6.96e-4,-0.0036 -0.0014,-0.0071 -0.0021,-0.01073 -7.02e-4,-0.0036 -0.0014,-0.0071 -0.0021,-0.01073 -7.08e-4,-0.0036 -0.0014,-0.0071 -0.0021,-0.01073 -7.13e-4,-0.0036 -0.0014,-0.0071 -0.0021,-0.01073 -7.19e-4,-0.0036 -0.0014,-0.0071 -0.0022,-0.01073 -7.24e-4,-0.0036 -0.0014,-0.0071 -0.0022,-0.01073 -7.3e-4,-0.0036 -0.0015,-0.0071 -0.0022,-0.01073 -7.35e-4,-0.0036 -0.0015,-0.0071 -0.0022,-0.01073 -7.4e-4,-0.0036 -0.0015,-0.0071 -0.0022,-0.01073 -7.45e-4,-0.0036 -0.0015,-0.0071 -0.0022,-0.01073 -7.51e-4,-0.0036 -0.0015,-0.0071 -0.0023,-0.01073 -7.56e-4,-0.0036 -0.0015,-0.0071 -0.0023,-0.01073 -7.61e-4,-0.0036 -0.0015,-0.0071 -0.0023,-0.01073 -7.66e-4,-0.0036 -0.0015,-0.0071 -0.0023,-0.01074 -7.71e-4,-0.0036 -0.0015,-0.0071 -0.0023,-0.01073 -7.76e-4,-0.0036 -0.0015,-0.0071 -0.0023,-0.01074 -7.8e-4,-0.0036 -0.0016,-0.0071 -0.0023,-0.01074 -7.86e-4,-0.0036 -0.0016,-0.0072 -0.0024,-0.01074 -7.9e-4,-0.0036 -0.0016,-0.0072 -0.0024,-0.01074 -7.96e-4,-0.0036 -0.0016,-0.0072 -0.0024,-0.01074 -8e-4,-0.0036 -0.0016,-0.0072 -0.0024,-0.01074 -8.05e-4,-0.0036 -0.0016,-0.0072 -0.0024,-0.01074 -8.09e-4,-0.0036 -0.0016,-0.0072 -0.0024,-0.01074 -8.14e-4,-0.0036 -0.0016,-0.0072 -0.0024,-0.01074 -8.19e-4,-0.0036 -0.0016,-0.0072 -0.0025,-0.01074 -8.23e-4,-0.0036 -0.0016,-0.0072 -0.0025,-0.01074 -8.28e-4,-0.0036 -0.0017,-0.0072 -0.0025,-0.01074 -8.32e-4,-0.0036 -0.0017,-0.0072 -0.0025,-0.01074 -8.37e-4,-0.0036 -0.0017,-0.0072 -0.0025,-0.01074 -8.41e-4,-0.0036 -0.0017,-0.0072 -0.0025,-0.01074 -8.45e-4,-0.0036 -0.0017,-0.0072 -0.0025,-0.01074 -8.49e-4,-0.0036 -0.0017,-0.0072 -0.0025,-0.01074 -0.0025,-0.01073 -0.0051,-0.02147 -0.0077,-0.03225 -0.0026,-0.01072 -0.0052,-0.02147 -0.0078,-0.03224 -0.0035,-0.0143 -0.007,-0.02863 -0.01059,-0.043 -0.02765,-0.1113 -0.05704,-0.22235 -0.08763,-0.333462 -0.03461,-0.125726 -0.07065,-0.251164 -0.107415,-0.376926 -0.06189,-0.211672 -0.125571,-0.42331 -0.187214,-0.636034 -0.03627,-0.125178 -0.07192,-0.251021 -0.106013,-0.377424 -0.02122,-0.07868 -0.04188,-0.157756 -0.06174,-0.237186 -0.0056,-0.02223 -0.01048,-0.0447 -0.01498,-0.06741 -0.0051,-0.02552 -0.0096,-0.05123 -0.0139,-0.0772 -0.0064,-0.03812 -0.01233,-0.07663 -0.01919,-0.115297 -0.0044,-0.02468 -0.0091,-0.04949 -0.01459,-0.07425 -0.0049,-0.02233 -0.0104,-0.04467 -0.01665,-0.06689 -0.006,-0.0213 -0.01268,-0.04251 -0.02019,-0.06351 -0.006,-0.0167 -0.01245,-0.03327 -0.01948,-0.04967 -8.6e-4,-0.002 -0.0017,-0.004 -0.0026,-0.006 -8.77e-4,-0.002 -0.0017,-0.004 -0.0026,-0.006 -8.81e-4,-0.002 -0.0017,-0.004 -0.0026,-0.006 -8.86e-4,-0.002 -0.0018,-0.004 -0.0026,-0.006 -8.9e-4,-0.002 -0.0018,-0.004 -0.0026,-0.006 -8.96e-4,-0.002 -0.0018,-0.004 -0.0027,-0.0059 -9e-4,-0.002 -0.0018,-0.004 -0.0027,-0.0059 -9.05e-4,-0.002 -0.0018,-0.004 -0.0027,-0.0059 -9.1e-4,-0.002 -0.0018,-0.004 -0.0027,-0.0059 -9.14e-4,-0.002 -0.0018,-0.004 -0.0027,-0.0059 -9.18e-4,-0.002 -0.0018,-0.0039 -0.0027,-0.0059 -9.23e-4,-0.002 -0.0018,-0.0039 -0.0027,-0.0059 -9.28e-4,-0.002 -0.0018,-0.0039 -0.0027,-0.0059 -9.32e-4,-0.002 -0.0018,-0.0039 -0.0028,-0.0059 -9.37e-4,-0.002 -0.0019,-0.0039 -0.0028,-0.0059 -9.41e-4,-0.002 -0.0019,-0.0039 -0.0028,-0.0059 -9.45e-4,-0.002 -0.0019,-0.0039 -0.0028,-0.0059 -9.49e-4,-0.002 -0.0019,-0.0039 -0.0028,-0.0058 -9.54e-4,-0.002 -0.0019,-0.0039 -0.0028,-0.0058 -9.58e-4,-0.002 -0.0019,-0.0039 -0.0028,-0.0058 -9.62e-4,-0.002 -0.0019,-0.0039 -0.0029,-0.0058 -9.66e-4,-0.002 -0.0019,-0.0039 -0.0029,-0.0058 -9.71e-4,-0.002 -0.0019,-0.0039 -0.0029,-0.0058 -9.74e-4,-0.002 -0.0019,-0.0039 -0.0029,-0.0058 -9.78e-4,-0.002 -0.0019,-0.0039 -0.0029,-0.0058 -9.82e-4,-0.0019 -0.0019,-0.0039 -0.0029,-0.0058 -9.86e-4,-0.0019 -0.002,-0.0039 -0.0029,-0.0058 -9.9e-4,-0.0019 -0.002,-0.0039 -0.0029,-0.0058 -9.94e-4,-0.0019 -0.002,-0.0038 -0.0029,-0.0058 -9.98e-4,-0.0019 -0.002,-0.0038 -0.003,-0.0058 -0.001,-0.0019 -0.002,-0.0038 -0.003,-0.0057 -0.001,-0.0019 -0.002,-0.0038 -0.003,-0.0057 -0.001,-0.0019 -0.002,-0.0038 -0.003,-0.0057 -0.001,-0.0019 -0.002,-0.0038 -0.003,-0.0057 -0.001,-0.0019 -0.002,-0.0038 -0.003,-0.0057 -0.001,-0.0019 -0.002,-0.0038 -0.003,-0.0057 -0.001,-0.0019 -0.002,-0.0038 -0.003,-0.0057 -0.001,-0.0019 -0.002,-0.0038 -0.003,-0.0057 -0.001,-0.0019 -0.002,-0.0038 -0.0031,-0.0057 -0.001,-0.0019 -0.002,-0.0038 -0.0031,-0.0057 -0.001,-0.0019 -0.0021,-0.0038 -0.0031,-0.0057 -0.001,-0.0019 -0.0021,-0.0038 -0.0031,-0.0057 -0.0031,-0.0057 -0.0062,-0.01132 -0.0093,-0.01696 -0.0031,-0.0056 -0.0063,-0.01126 -0.0094,-0.01688 -0.0042,-0.0075 -0.0084,-0.01495 -0.01268,-0.02242 -0.03072,-0.05389 -0.06277,-0.10702 -0.09571,-0.1596 -0.03724,-0.05945 -0.07559,-0.11816 -0.11447,-0.176534 -0.04318,-0.06484 -0.08696,-0.129168 -0.130567,-0.193678 -0.0372,-0.05504 -0.07426,-0.110185 -0.110596,-0.165775 -0.03133,-0.04794 -0.06212,-0.09623 -0.09196,-0.145091 -0.02834,-0.04642 -0.05583,-0.09336 -0.08203,-0.141001 -0.0029,-0.0053 -0.0058,-0.01051 -0.0086,-0.01578 -9.45e-4,-0.0017 -0.0019,-0.0035 -0.0029,-0.0053 -9.31e-4,-0.0017 -0.0019,-0.0035 -0.0028,-0.0053 -9.27e-4,-0.0017 -0.0019,-0.0035 -0.0028,-0.0053 -9.23e-4,-0.0017 -0.0019,-0.0035 -0.0028,-0.0053 -9.19e-4,-0.0017 -0.0019,-0.0035 -0.0028,-0.0053 -9.15e-4,-0.0017 -0.0018,-0.0035 -0.0028,-0.0053 -9.1e-4,-0.0017 -0.0018,-0.0035 -0.0028,-0.0053 -9.05e-4,-0.0017 -0.0018,-0.0035 -0.0028,-0.0053 -9.01e-4,-0.0017 -0.0018,-0.0035 -0.0027,-0.0053 -8.96e-4,-0.0017 -0.0018,-0.0035 -0.0027,-0.0053 -8.92e-4,-0.0017 -0.0018,-0.0035 -0.0027,-0.0053 -8.87e-4,-0.0017 -0.0018,-0.0035 -0.0027,-0.0053 -8.82e-4,-0.0017 -0.0018,-0.0035 -0.0027,-0.0053 -8.78e-4,-0.0017 -0.0018,-0.0035 -0.0027,-0.0053 -8.74e-4,-0.0017 -0.0018,-0.0035 -0.0027,-0.0053 -8.96e-4,-0.0018 -0.0018,-0.0036 -0.0027,-0.0055 -8.88e-4,-0.0018 -0.0018,-0.0036 -0.0027,-0.0055 -8.8e-4,-0.0018 -0.0018,-0.0036 -0.0027,-0.0054 -8.71e-4,-0.0018 -0.0018,-0.0036 -0.0027,-0.0054 -8.63e-4,-0.0018 -0.0017,-0.0036 -0.0026,-0.0054 -8.54e-4,-0.0018 -0.0017,-0.0036 -0.0026,-0.0054 -8.46e-4,-0.0018 -0.0017,-0.0035 -0.0026,-0.0053 -8.38e-4,-0.0017 -0.0017,-0.0035 -0.0026,-0.0053 -8.29e-4,-0.0017 -0.0017,-0.0035 -0.0025,-0.0053 -8.21e-4,-0.0017 -0.0017,-0.0035 -0.0025,-0.0053 -8.13e-4,-0.0017 -0.0016,-0.0035 -0.0025,-0.0053 -8.05e-4,-0.0017 -0.0016,-0.0035 -0.0025,-0.0052 -7.98e-4,-0.0017 -0.0016,-0.0035 -0.0024,-0.0052 -7.9e-4,-0.0017 -0.0016,-0.0034 -0.0024,-0.0052 -7.83e-4,-0.0017 -0.0016,-0.0034 -0.0024,-0.0052 -0.0023,-0.0051 -0.0047,-0.01023 -0.007,-0.01536 -0.0023,-0.0051 -0.0046,-0.01012 -0.0068,-0.01519 -0.003,-0.0066 -0.0059,-0.01331 -0.0088,-0.01998 -0.0063,-0.01455 -0.01253,-0.02916 -0.01861,-0.04383 -0.01205,-0.02907 -0.0236,-0.05837 -0.03474,-0.08785 -0.01032,-0.02732 -0.02029,-0.0548 -0.03005,-0.08241 -0.0092,-0.02593 -0.01815,-0.05194 -0.02716,-0.07805 -0.0099,-0.02871 -0.01988,-0.05758 -0.0302,-0.08633 -0.01093,-0.03045 -0.02231,-0.06088 -0.03457,-0.09104 -0.0061,-0.01503 -0.01243,-0.03 -0.01902,-0.04489 -0.0017,-0.0037 -0.0033,-0.0075 -0.005,-0.0112 -0.0017,-0.0037 -0.0034,-0.0075 -0.0051,-0.01119 -0.04474,-0.09647 -0.102051,-0.186602 -0.169544,-0.268782 -0.0011,-0.0013 -0.0022,-0.0027 -0.0033,-0.004 -0.0012,-0.0014 -0.0023,-0.0027 -0.0034,-0.0041 -0.0012,-0.0014 -0.0023,-0.0027 -0.0034,-0.0041 -0.0012,-0.0014 -0.0023,-0.0027 -0.0034,-0.0041 -0.0012,-0.0014 -0.0023,-0.0028 -0.0035,-0.0041 -0.0012,-0.0014 -0.0023,-0.0028 -0.0035,-0.0041 -0.0012,-0.0014 -0.0024,-0.0028 -0.0035,-0.0041 -0.0012,-0.0014 -0.0024,-0.0028 -0.0036,-0.0041 -0.0012,-0.0014 -0.0024,-0.0028 -0.0036,-0.0041 -0.0012,-0.0014 -0.0024,-0.0028 -0.0036,-0.0042 -0.0013,-0.0014 -0.0025,-0.0028 -0.0037,-0.0042 -0.0013,-0.0014 -0.0025,-0.0028 -0.0037,-0.0042 -0.0013,-0.0014 -0.0025,-0.0028 -0.0037,-0.0042 -0.0013,-0.0014 -0.0025,-0.0028 -0.0038,-0.0042 -0.0013,-0.0014 -0.0026,-0.0028 -0.0038,-0.0042 -0.0013,-0.0014 -0.0026,-0.0028 -0.0038,-0.0042 -0.0013,-0.0014 -0.0026,-0.0028 -0.0039,-0.0042 -0.0013,-0.0014 -0.0026,-0.0028 -0.0039,-0.0042 -0.0013,-0.0015 -0.0026,-0.0029 -0.0039,-0.0043 -0.0014,-0.0015 -0.0027,-0.0029 -0.004,-0.0043 -0.0014,-0.0015 -0.0027,-0.0029 -0.004,-0.0043 -0.0014,-0.0015 -0.0027,-0.0029 -0.0041,-0.0043 -0.0014,-0.0015 -0.0027,-0.0029 -0.0041,-0.0043 -0.0014,-0.0015 -0.0028,-0.0029 -0.0041,-0.0043 -0.0014,-0.0015 -0.0028,-0.0029 -0.0042,-0.0043 -0.0014,-0.0015 -0.0028,-0.0029 -0.0042,-0.0043 -0.0014,-0.0015 -0.0028,-0.0029 -0.0042,-0.0044 -0.0015,-0.0015 -0.0029,-0.0029 -0.0043,-0.0044 -0.0015,-0.0015 -0.0029,-0.0029 -0.0043,-0.0044 -0.0015,-0.0015 -0.0029,-0.0029 -0.0044,-0.0044 -0.0015,-0.0015 -0.0029,-0.003 -0.0044,-0.0044 -0.0068,-0.0068 -0.013,-0.0143 -0.01827,-0.0224 -0.0012,-0.0018 -0.0024,-0.0037 -0.0035,-0.0056 -0.0031,-0.0054 -0.0059,-0.01108 -0.0083,-0.01693 -0.0024,-0.0058 -0.0044,-0.01188 -0.0061,-0.01811 -0.0017,-0.0063 -0.0032,-0.01269 -0.0045,-0.01932 -0.0012,-0.0064 -0.0023,-0.01275 -0.0035,-0.01947 -0.001,-0.0059 -0.0021,-0.01221 -0.0035,-0.01851 -0.0013,-0.0059 -0.0028,-0.01216 -0.0049,-0.01842 -0.002,-0.006 -0.0046,-0.0121 -0.008,-0.01806 -0.0011,-0.0019 -0.0022,-0.0037 -0.0034,-0.0055 -0.0033,-0.0048 -0.0066,-0.0096 -0.01064,-0.0138 -0.004,-0.0042 -0.0086,-0.0079 -0.01367,-0.01074 -0.0101,-0.0058 -0.02164,-0.0084 -0.033,-0.01089 -0.0015,-3.25e-4 -0.0029,-6.22e-4 -0.0043,-8.95e-4 -0.0015,-2.92e-4 -0.003,-5.56e-4 -0.0045,-7.98e-4 -0.0016,-2.58e-4 -0.0031,-4.91e-4 -0.0046,-7.01e-4 -0.0022,-3.03e-4 -0.0043,-5.63e-4 -0.0064,-7.88e-4 -0.0029,-3.07e-4 -0.0056,-5.53e-4 -0.0084,-7.49e-4 -0.0075,-5.42e-4 -0.0149,-7.43e-4 -0.02198,-7.44e-4 a 0.01966366,0.01966366 90 0 0 -6e-6,0.03933 c 0.0064,0 0.01276,1.81e-4 0.01916,6.42e-4 0.0023,1.66e-4 0.0046,3.71e-4 0.007,6.23e-4 0.0017,1.85e-4 0.0034,3.96e-4 0.0052,6.38e-4 0.0089,0.0012 0.01813,0.002 0.02647,0.0054 0.0042,0.0017 0.008,0.0042 0.0112,0.0075 0.0032,0.0032 0.0055,0.0071 0.0078,0.01103 0.0018,0.0032 0.0034,0.0069 0.0048,0.011 0.0015,0.0044 0.0027,0.0091 0.0037,0.01415 0.0012,0.0054 0.0021,0.011 0.0032,0.01695 0.0011,0.0065 0.0023,0.01343 0.0036,0.02032 0.0014,0.0073 0.0031,0.01478 0.0051,0.02229 0.0021,0.0075 0.0046,0.01503 0.0076,0.02246 0.003,0.0075 0.0066,0.01479 0.0107,0.02187 0.0014,0.0025 0.0029,0.0049 0.0045,0.0073 0.0011,0.0016 0.0022,0.0033 0.0033,0.0049 0.006,0.0085 0.01274,0.01649 0.0201,0.02386 0.0015,0.0015 0.0029,0.0029 0.0044,0.0044 0.0014,0.0014 0.0028,0.0029 0.0043,0.0043 0.0014,0.0014 0.0028,0.0029 0.0042,0.0043 0.0014,0.0014 0.0028,0.0028 0.0042,0.0043 0.0014,0.0014 0.0028,0.0028 0.0042,0.0043 0.0013,0.0014 0.0027,0.0028 0.0041,0.0043 0.0013,0.0014 0.0027,0.0028 0.0041,0.0042 0.0013,0.0014 0.0027,0.0028 0.004,0.0042 0.0013,0.0014 0.0027,0.0028 0.004,0.0042 0.0013,0.0014 0.0026,0.0028 0.004,0.0042 0.0013,0.0014 0.0026,0.0028 0.0039,0.0042 0.0013,0.0014 0.0026,0.0028 0.0039,0.0042 0.0013,0.0014 0.0026,0.0028 0.0039,0.0042 0.0012,0.0014 0.0025,0.0028 0.0038,0.0042 0.0012,0.0013 0.0025,0.0027 0.0038,0.0041 0.0012,0.0013 0.0025,0.0027 0.0038,0.0041 0.0012,0.0013 0.0025,0.0027 0.0037,0.0041 0.0012,0.0013 0.0024,0.0027 0.0037,0.0041 0.0012,0.0013 0.0024,0.0027 0.0036,0.0041 0.0012,0.0013 0.0024,0.0027 0.0036,0.0041 0.0012,0.0013 0.0024,0.0027 0.0036,0.0041 0.0012,0.0013 0.0023,0.0027 0.0035,0.0041 0.0011,0.0013 0.0023,0.0027 0.0035,0.004 0.0011,0.0013 0.0023,0.0027 0.0035,0.004 0.0011,0.0013 0.0023,0.0027 0.0034,0.004 0.0011,0.0013 0.0023,0.0027 0.0034,0.004 0.0011,0.0013 0.0022,0.0026 0.0034,0.004 0.0011,0.0013 0.0022,0.0026 0.0033,0.004 0.0011,0.0013 0.0022,0.0026 0.0033,0.004 0.0011,0.0013 0.0022,0.0026 0.0033,0.004 0.0011,0.0013 0.0022,0.0026 0.0032,0.004 0.06538,0.07961 0.120918,0.166909 0.164258,0.260367 0.0017,0.0036 0.0033,0.0072 0.005,0.01087 0.0016,0.0036 0.0033,0.0072 0.0049,0.01089 0.0064,0.01448 0.01258,0.02908 0.01855,0.04377 0.01199,0.0295 0.02317,0.05939 0.03399,0.08953 0.01023,0.02849 0.02011,0.05713 0.03004,0.08588 0.009,0.02608 0.01803,0.05223 0.02726,0.07833 0.0098,0.0278 0.01989,0.05556 0.03034,0.0832 0.01127,0.02984 0.02298,0.05952 0.0352,0.08901 0.0062,0.01488 0.01246,0.0297 0.01888,0.04446 0.0029,0.0068 0.0059,0.01353 0.0089,0.02027 0.0023,0.0051 0.0046,0.01029 0.0069,0.01542 0.0024,0.0052 0.0047,0.01041 0.0071,0.01561 8.1e-4,0.0018 0.0016,0.0035 0.0024,0.0052 8.26e-4,0.0018 0.0016,0.0035 0.0024,0.0053 8.34e-4,0.0018 0.0016,0.0035 0.0025,0.0053 8.42e-4,0.0018 0.0017,0.0036 0.0025,0.0053 8.5e-4,0.0018 0.0017,0.0036 0.0025,0.0053 8.59e-4,0.0018 0.0017,0.0036 0.0025,0.0054 8.67e-4,0.0018 0.0017,0.0036 0.0026,0.0054 8.76e-4,0.0018 0.0017,0.0036 0.0026,0.0054 8.84e-4,0.0018 0.0017,0.0036 0.0026,0.0054 8.92e-4,0.0018 0.0018,0.0036 0.0026,0.0054 9.02e-4,0.0018 0.0018,0.0037 0.0027,0.0055 9.1e-4,0.0019 0.0018,0.0037 0.0027,0.0055 9.19e-4,0.0019 0.0018,0.0037 0.0027,0.0055 9.28e-4,0.0019 0.0018,0.0037 0.0027,0.0055 9.37e-4,0.0019 0.0019,0.0037 0.0028,0.0056 9.15e-4,0.0018 0.0018,0.0036 0.0027,0.0054 9.21e-4,0.0018 0.0018,0.0036 0.0027,0.0054 9.25e-4,0.0018 0.0018,0.0036 0.0027,0.0054 9.29e-4,0.0018 0.0018,0.0036 0.0027,0.0054 9.34e-4,0.0018 0.0018,0.0036 0.0028,0.0054 9.38e-4,0.0018 0.0019,0.0036 0.0028,0.0054 9.43e-4,0.0018 0.0019,0.0036 0.0028,0.0054 9.47e-4,0.0018 0.0019,0.0036 0.0028,0.0054 9.51e-4,0.0018 0.0019,0.0036 0.0028,0.0054 9.55e-4,0.0018 0.0019,0.0036 0.0028,0.0054 9.59e-4,0.0018 0.0019,0.0036 0.0028,0.0054 9.64e-4,0.0018 0.0019,0.0036 0.0028,0.0053 9.68e-4,0.0018 0.0019,0.0036 0.0029,0.0053 9.71e-4,0.0018 0.0019,0.0036 0.0029,0.0053 9.76e-4,0.0018 0.0019,0.0036 0.0029,0.0053 0.0029,0.0054 0.0058,0.01069 0.0087,0.016 0.02654,0.04826 0.05433,0.09572 0.08292,0.142548 0.0301,0.04929 0.06112,0.09794 0.09261,0.146109 0.0365,0.05586 0.07371,0.111208 0.110933,0.166281 0.0437,0.06465 0.08733,0.128768 0.130416,0.193455 0.03876,0.05819 0.0769,0.116581 0.113877,0.175613 0.0327,0.05221 0.06446,0.104866 0.09487,0.158201 0.0042,0.0074 0.0084,0.01478 0.01254,0.02218 0.0031,0.0056 0.0062,0.01113 0.0093,0.0167 0.0031,0.0056 0.0062,0.01116 0.0092,0.01675 0.001,0.0019 0.002,0.0037 0.0031,0.0056 0.001,0.0018 0.002,0.0037 0.003,0.0056 9.99e-4,0.0018 0.002,0.0037 0.003,0.0056 9.96e-4,0.0019 0.002,0.0037 0.003,0.0056 9.92e-4,0.0019 0.002,0.0037 0.003,0.0056 9.88e-4,0.0019 0.002,0.0037 0.003,0.0056 9.85e-4,0.0019 0.002,0.0037 0.003,0.0056 9.82e-4,0.0019 0.002,0.0038 0.003,0.0056 9.77e-4,0.0019 0.002,0.0038 0.003,0.0057 9.74e-4,0.0019 0.002,0.0038 0.003,0.0057 9.7e-4,0.0019 0.002,0.0038 0.0029,0.0057 9.66e-4,0.0019 0.0019,0.0038 0.0029,0.0057 9.62e-4,0.0019 0.0019,0.0038 0.0029,0.0057 9.58e-4,0.0019 0.0019,0.0038 0.0029,0.0057 9.54e-4,0.0019 0.0019,0.0038 0.0029,0.0057 9.5e-4,0.0019 0.0019,0.0038 0.0029,0.0057 9.46e-4,0.0019 0.0019,0.0038 0.0029,0.0057 9.42e-4,0.0019 0.0019,0.0038 0.0029,0.0057 9.38e-4,0.0019 0.0019,0.0038 0.0028,0.0057 9.33e-4,0.0019 0.0019,0.0038 0.0028,0.0057 9.3e-4,0.0019 0.0019,0.0038 0.0028,0.0057 9.26e-4,0.0019 0.0019,0.0038 0.0028,0.0057 9.21e-4,0.0019 0.0019,0.0038 0.0028,0.0057 9.16e-4,0.0019 0.0019,0.0038 0.0028,0.0058 9.12e-4,0.0019 0.0018,0.0038 0.0028,0.0058 9.08e-4,0.0019 0.0018,0.0038 0.0028,0.0058 9.04e-4,0.0019 0.0018,0.0038 0.0027,0.0058 9e-4,0.0019 0.0018,0.0038 0.0027,0.0058 8.95e-4,0.0019 0.0018,0.0039 0.0027,0.0058 8.9e-4,0.0019 0.0018,0.0039 0.0027,0.0058 8.86e-4,0.0019 0.0018,0.0039 0.0027,0.0058 8.82e-4,0.0019 0.0018,0.0039 0.0027,0.0058 8.77e-4,0.0019 0.0018,0.0039 0.0027,0.0058 8.72e-4,0.0019 0.0018,0.0039 0.0027,0.0058 8.68e-4,0.0019 0.0018,0.0039 0.0026,0.0058 8.63e-4,0.0019 0.0017,0.0039 0.0026,0.0058 8.58e-4,0.0019 0.0017,0.0039 0.0026,0.0059 8.53e-4,0.0019 0.0017,0.0039 0.0026,0.0059 8.48e-4,0.0019 0.0017,0.0039 0.0026,0.0059 8.44e-4,0.0019 0.0017,0.0039 0.0026,0.0059 8.39e-4,0.0019 0.0017,0.0039 0.0026,0.0059 8.34e-4,0.0019 0.0017,0.0039 0.0025,0.0059 0.0067,0.01561 0.01288,0.03143 0.01859,0.04739 0.0072,0.02008 0.0136,0.04042 0.01937,0.06092 0.006,0.02139 0.01132,0.04299 0.0161,0.0647 0.0053,0.02408 0.01,0.04834 0.01428,0.07267 0.0068,0.03811 0.01271,0.07648 0.01912,0.114899 0.0044,0.02616 0.0089,0.0523 0.01411,0.07838 0.0046,0.02321 0.0097,0.04633 0.01541,0.0693 0.01992,0.0797 0.04065,0.159009 0.06192,0.237887 0.03417,0.126715 0.0699,0.252807 0.106208,0.378123 0.06172,0.212989 0.125413,0.424656 0.187241,0.636131 0.03674,0.125653 0.07271,0.250875 0.107246,0.376328 0.03052,0.110865 0.05982,0.221591 0.08738,0.332501 0.0036,0.01432 0.0071,0.0286 0.01055,0.04285 0.0026,0.01073 0.0052,0.02144 0.0078,0.03212 0.0026,0.01073 0.0051,0.02144 0.0077,0.03211 8.47e-4,0.0036 0.0017,0.0071 0.0025,0.01071 8.41e-4,0.0036 0.0017,0.0071 0.0025,0.0107 8.36e-4,0.0036 0.0017,0.0071 0.0025,0.0107 8.32e-4,0.0036 0.0017,0.0071 0.0025,0.0107 8.27e-4,0.0036 0.0017,0.0071 0.0025,0.0107 8.23e-4,0.0036 0.0016,0.0071 0.0025,0.0107 8.18e-4,0.0036 0.0016,0.0071 0.0025,0.0107 8.14e-4,0.0036 0.0016,0.0071 0.0024,0.01069 8.09e-4,0.0036 0.0016,0.0071 0.0024,0.01069 8.05e-4,0.0036 0.0016,0.0071 0.0024,0.01069 8e-4,0.0036 0.0016,0.0071 0.0024,0.01069 7.96e-4,0.0036 0.0016,0.0071 0.0024,0.01069 7.91e-4,0.0036 0.0016,0.0071 0.0024,0.01069 7.87e-4,0.0036 0.0016,0.0071 0.0024,0.01069 7.82e-4,0.0036 0.0016,0.0071 0.0023,0.01069 7.77e-4,0.0036 0.0016,0.0071 0.0023,0.01069 7.72e-4,0.0036 0.0015,0.0071 0.0023,0.01069 7.67e-4,0.0036 0.0015,0.0071 0.0023,0.01068 7.62e-4,0.0036 0.0015,0.0071 0.0023,0.01069 7.57e-4,0.0036 0.0015,0.0071 0.0023,0.01068 7.52e-4,0.0036 0.0015,0.0071 0.0023,0.01068 7.47e-4,0.0036 0.0015,0.0071 0.0022,0.01068 7.42e-4,0.0036 0.0015,0.0071 0.0022,0.01068 7.38e-4,0.0036 0.0015,0.0071 0.0022,0.01068 7.33e-4,0.0036 0.0015,0.0071 0.0022,0.01068 7.27e-4,0.0036 0.0015,0.0071 0.0022,0.01068 7.22e-4,0.0036 0.0014,0.0071 0.0022,0.01068 7.17e-4,0.0036 0.0014,0.0071 0.0021,0.01067 7.12e-4,0.0036 0.0014,0.0071 0.0021,0.01067 7.07e-4,0.0036 0.0014,0.0071 0.0021,0.01067 7.02e-4,0.0036 0.0014,0.0071 0.0021,0.01067 6.96e-4,0.0036 0.0014,0.0071 0.0021,0.01067 6.91e-4,0.0036 0.0014,0.0071 0.0021,0.01067 6.85e-4,0.0036 0.0014,0.0071 0.002,0.01067 6.8e-4,0.0036 0.0014,0.0071 0.002,0.01067 6.74e-4,0.0036 0.0013,0.0071 0.002,0.01067 6.69e-4,0.0036 0.0013,0.0071 0.002,0.01067 6.63e-4,0.0036 0.0013,0.0071 0.002,0.01066 6.58e-4,0.0036 0.0013,0.0071 0.002,0.01066 6.52e-4,0.0036 0.0013,0.0071 0.0019,0.01066 6.46e-4,0.0036 0.0013,0.0071 0.0019,0.01066 6.41e-4,0.0036 0.0013,0.0071 0.0019,0.01066 6.36e-4,0.0036 0.0013,0.0071 0.0019,0.01066 6.3e-4,0.0036 0.0013,0.0071 0.0019,0.01066 6.25e-4,0.0036 0.0012,0.0071 0.0019,0.01065 6.19e-4,0.0036 0.0012,0.0071 0.0018,0.01065 6.13e-4,0.0036 0.0012,0.0071 0.0018,0.01065 6.09e-4,0.0036 0.0012,0.0072 0.0018,0.01065 6.02e-4,0.0036 0.0012,0.0072 0.0018,0.01065 5.98e-4,0.0036 0.0012,0.0072 0.0018,0.01065 5.93e-4,0.0036 0.0012,0.0072 0.0017,0.01065 5.88e-4,0.0036 0.0012,0.0072 0.0017,0.01065 5.84e-4,0.0036 0.0012,0.0072 0.0017,0.01065 5.79e-4,0.0036 0.0011,0.0072 0.0017,0.01064 5.75e-4,0.0037 0.0011,0.0072 0.0017,0.01064 5.73e-4,0.0037 0.0011,0.0072 0.0017,0.01064 5.73e-4,0.0037 0.0011,0.0073 0.0016,0.01064 5.76e-4,0.0038 0.0011,0.0074 0.0016,0.01064 3.14e-4,0.0021 6.16e-4,0.0041 9e-4,0.006 2.38e-4,0.0016 4.69e-4,0.0031 6.94e-4,0.0046 5.6e-4,0.0038 0.0011,0.0073 0.0016,0.01064 5.62e-4,0.0038 0.0011,0.0074 0.0016,0.01064 5.68e-4,0.0039 0.0011,0.0075 0.0015,0.01063 5.82e-4,0.0041 0.0011,0.0076 0.0015,0.01063 5.96e-4,0.0042 0.0011,0.0076 0.0015,0.01063 a 0.01966367,0.01966367 90 0 0 0.03894,-0.0055 z"
         id="path-1"
         inkscape:path-effect="#path-effect35;#path-effect36"
         inkscape:original-d="m 85.851563,86.992055 c -0.127053,-0.910374 -0.477541,-1.831507 -0.707892,-2.752913 -0.04309,-0.172369 -0.04372,-0.337988 -0.117982,-0.511255 -0.217646,-0.50784 -0.597395,-0.919499 -0.825874,-1.376457 -0.235984,-0.471968 -0.176845,-0.688099 -0.550583,-1.061838 -0.08962,-0.08962 2.69e-4,-0.196636 -0.157309,-0.196636"
         style="opacity:0.336283;fill:#ffffff;fill-opacity:1;fill-rule:nonzero;stroke:none;stroke-width:0.1;stroke-dasharray:none;stroke-opacity:0.876289" /><path
         d="m 88.438157,86.399679 c -0.0034,-0.01355 -0.0075,-0.03151 -0.01134,-0.05408 -0.0029,-0.01728 -0.0057,-0.03683 -0.0081,-0.05999 -0.0024,-0.0225 -0.0042,-0.04553 -0.0061,-0.07307 -0.0017,-0.02472 -0.0039,-0.05988 -0.0064,-0.08931 -6.86e-4,-0.0082 -0.0014,-0.01672 -0.0023,-0.02538 -0.0012,-0.01231 -0.0027,-0.026 -0.0046,-0.04037 -9.06e-4,-0.0068 -0.002,-0.01425 -0.0032,-0.02231 -0.0057,-0.03626 -0.01299,-0.07451 -0.0223,-0.114924 -0.0088,-0.03831 -0.01927,-0.07792 -0.03153,-0.119303 -0.01256,-0.04242 -0.02671,-0.08569 -0.04254,-0.130677 -0.01675,-0.04761 -0.0348,-0.09553 -0.05429,-0.145564 -0.0319,-0.08188 -0.06617,-0.165412 -0.09954,-0.251767 -0.0139,-0.03598 -0.02797,-0.07333 -0.04155,-0.111373 -0.0439,-0.122932 -0.09016,-0.246777 -0.138896,-0.373723 -0.05731,-0.149303 -0.115961,-0.297507 -0.177169,-0.451583 -0.06497,-0.163551 -0.133399,-0.335115 -0.199041,-0.504697 -0.04837,-0.124956 -0.09685,-0.253002 -0.14383,-0.382735 -0.04142,-0.114387 -0.08209,-0.231262 -0.120932,-0.349996 -0.0233,-0.07122 -0.04612,-0.1437 -0.06818,-0.217233 -0.0243,-0.08102 -0.04703,-0.163213 -0.06883,-0.246933 -0.02399,-0.09216 -0.04659,-0.185115 -0.06887,-0.279754 -0.03717,-0.157877 -0.07277,-0.317782 -0.111083,-0.478649 -0.02144,-0.09001 -0.04392,-0.181067 -0.06808,-0.272089 -0.0211,-0.07948 -0.04363,-0.159473 -0.06811,-0.239382 -0.01129,-0.03687 -0.02306,-0.07393 -0.03537,-0.111077 -0.0032,-0.0098 -0.0065,-0.0196 -0.0099,-0.02948 -0.0025,-0.0073 -0.005,-0.01467 -0.0075,-0.02206 -0.0025,-0.0073 -0.0051,-0.01465 -0.0076,-0.02203 -0.0026,-0.0073 -0.0051,-0.01463 -0.0078,-0.02199 -8.67e-4,-0.0024 -0.0017,-0.0049 -0.0026,-0.0073 -8.74e-4,-0.0024 -0.0017,-0.0049 -0.0026,-0.0073 -8.78e-4,-0.0024 -0.0018,-0.0049 -0.0026,-0.0073 -8.84e-4,-0.0024 -0.0018,-0.0049 -0.0027,-0.0073 -8.89e-4,-0.0024 -0.0018,-0.0049 -0.0027,-0.0073 -8.93e-4,-0.0024 -0.0018,-0.0049 -0.0027,-0.0073 -8.98e-4,-0.0024 -0.0018,-0.0049 -0.0027,-0.0073 -9.03e-4,-0.0024 -0.0018,-0.0049 -0.0027,-0.0073 -9.08e-4,-0.0024 -0.0018,-0.0049 -0.0027,-0.0073 -9.13e-4,-0.0024 -0.0018,-0.0049 -0.0027,-0.0073 -9.18e-4,-0.0024 -0.0018,-0.0049 -0.0027,-0.0073 -9.23e-4,-0.0024 -0.0018,-0.0048 -0.0028,-0.0073 -9.28e-4,-0.0024 -0.0019,-0.0048 -0.0028,-0.0073 -9.33e-4,-0.0024 -0.0019,-0.0048 -0.0028,-0.0073 -9.38e-4,-0.0024 -0.0019,-0.0048 -0.0028,-0.0073 -9.44e-4,-0.0024 -0.0019,-0.0048 -0.0028,-0.0073 -9.49e-4,-0.0024 -0.0019,-0.0048 -0.0028,-0.0072 -9.54e-4,-0.0024 -0.0019,-0.0048 -0.0029,-0.0072 -9.6e-4,-0.0024 -0.0019,-0.0048 -0.0029,-0.0072 -9.65e-4,-0.0024 -0.0019,-0.0048 -0.0029,-0.0072 -9.7e-4,-0.0024 -0.0019,-0.0048 -0.0029,-0.0072 -9.75e-4,-0.0024 -0.0019,-0.0048 -0.0029,-0.0072 -9.81e-4,-0.0024 -0.002,-0.0048 -0.0029,-0.0072 -9.86e-4,-0.0024 -0.002,-0.0048 -0.0029,-0.0072 -9.92e-4,-0.0024 -0.002,-0.0048 -0.003,-0.0072 -9.97e-4,-0.0024 -0.002,-0.0048 -0.003,-0.0072 -0.0035,-0.0083 -0.0069,-0.01648 -0.01024,-0.02472 -0.01852,-0.04506 -0.03631,-0.09056 -0.05407,-0.135681 -0.01717,-0.04362 -0.03433,-0.08693 -0.05236,-0.129945 -0.01477,-0.03524 -0.03006,-0.07008 -0.0463,-0.104416 -0.0149,-0.0315 -0.03057,-0.06248 -0.04731,-0.09277 -0.01579,-0.02856 -0.03249,-0.05645 -0.05034,-0.08347 -0.01627,-0.02465 -0.03346,-0.04852 -0.05164,-0.07146 -0.01786,-0.02254 -0.03667,-0.04413 -0.05642,-0.06464 -0.0037,-0.0039 -0.0075,-0.0077 -0.01124,-0.01145 -0.0098,-0.0098 -0.02016,-0.0189 -0.03084,-0.02736 -0.0119,-0.0094 -0.02426,-0.0181 -0.03678,-0.02618 -0.01394,-0.009 -0.02818,-0.01731 -0.04241,-0.02516 -0.0181,-0.01 -0.03652,-0.01942 -0.05452,-0.02858 -0.01758,-0.0089 -0.03464,-0.01758 -0.05162,-0.02669 -0.01379,-0.0074 -0.02719,-0.01493 -0.04021,-0.02291 -0.01228,-0.0075 -0.02409,-0.01539 -0.03534,-0.02377 -0.0053,-0.0039 -0.01048,-0.0079 -0.01559,-0.0119 -0.01759,-0.01368 -0.03496,-0.02796 -0.05186,-0.04181 -0.01559,-0.01277 -0.03076,-0.02517 -0.04632,-0.03726 -0.01303,-0.01012 -0.02602,-0.01979 -0.03926,-0.02891 -0.01261,-0.0087 -0.02531,-0.01677 -0.03824,-0.02412 -0.0065,-0.0037 -0.01294,-0.0071 -0.01938,-0.01036 -0.01599,-0.008 -0.03209,-0.01502 -0.048,-0.02125 -0.01873,-0.0073 -0.03746,-0.01365 -0.05571,-0.01921 -0.02202,-0.0067 -0.04402,-0.01256 -0.065,-0.01782 -0.03729,-0.0093 -0.07346,-0.01747 -0.108002,-0.02637 -0.02144,-0.0055 -0.04149,-0.01112 -0.06086,-0.01725 -0.01893,-0.006 -0.03648,-0.01225 -0.05301,-0.01894 -0.01471,-0.0059 -0.02814,-0.01205 -0.04046,-0.01821 a 0.00695216,0.00695216 90 0 0 -0.0062,0.01244 c 0.01265,0.0063 0.02642,0.01258 0.04146,0.01866 0.01691,0.0068 0.03481,0.01323 0.05403,0.01931 0.01967,0.0062 0.03998,0.01189 0.06158,0.01745 0.03481,0.009 0.07103,0.0171 0.108089,0.02639 0.02087,0.0052 0.04261,0.011 0.06432,0.01763 0.01798,0.0055 0.03636,0.01169 0.0547,0.01887 0.01556,0.0061 0.03127,0.01295 0.04684,0.02073 0.0062,0.0031 0.01244,0.0064 0.01872,0.01001 0.01253,0.0071 0.02488,0.01499 0.03723,0.02349 0.01297,0.0089 0.02573,0.01843 0.03861,0.02844 0.0154,0.01197 0.03045,0.02426 0.04604,0.03704 0.01686,0.01382 0.03438,0.02822 0.05214,0.04203 0.0052,0.004 0.01044,0.0081 0.01581,0.01206 0.01166,0.0087 0.02382,0.01677 0.03639,0.02447 0.01331,0.0082 0.02696,0.01583 0.0409,0.02331 0.01714,0.0092 0.03436,0.0179 0.05189,0.02682 0.01801,0.0092 0.03624,0.0185 0.05411,0.02836 0.01403,0.0077 0.02799,0.0159 0.04159,0.02467 0.01221,0.0079 0.02419,0.01629 0.03568,0.0254 0.01031,0.0082 0.02026,0.01691 0.02964,0.02629 0.0037,0.0037 0.0074,0.0075 0.01105,0.01127 0.01942,0.02017 0.03794,0.04143 0.05554,0.06364 0.01792,0.0226 0.03487,0.04615 0.05094,0.07049 0.01762,0.02669 0.03414,0.05425 0.04977,0.08253 0.01658,0.03 0.03211,0.06071 0.04691,0.09199 0.01613,0.0341 0.03133,0.06874 0.04604,0.103846 0.01797,0.04286 0.03507,0.08605 0.05224,0.129662 0.01774,0.04507 0.03558,0.0907 0.05415,0.135871 0.0034,0.0083 0.0068,0.01648 0.01025,0.02475 9.81e-4,0.0024 0.002,0.0048 0.003,0.0072 9.77e-4,0.0024 0.002,0.0048 0.0029,0.0072 9.72e-4,0.0024 0.002,0.0048 0.0029,0.0072 9.67e-4,0.0024 0.0019,0.0048 0.0029,0.0072 9.62e-4,0.0024 0.0019,0.0048 0.0029,0.0072 9.57e-4,0.0024 0.0019,0.0048 0.0029,0.0072 9.53e-4,0.0024 0.0019,0.0048 0.0029,0.0072 9.47e-4,0.0024 0.0019,0.0048 0.0029,0.0072 9.43e-4,0.0024 0.0019,0.0048 0.0028,0.0072 9.38e-4,0.0024 0.0019,0.0048 0.0028,0.0072 9.34e-4,0.0024 0.0019,0.0048 0.0028,0.0072 9.29e-4,0.0024 0.0019,0.0048 0.0028,0.0072 9.25e-4,0.0024 0.0019,0.0048 0.0028,0.0072 9.2e-4,0.0024 0.0018,0.0048 0.0028,0.0072 9.16e-4,0.0024 0.0018,0.0048 0.0028,0.0072 9.11e-4,0.0024 0.0018,0.0048 0.0027,0.0072 9.07e-4,0.0024 0.0018,0.0048 0.0027,0.0073 9.03e-4,0.0024 0.0018,0.0048 0.0027,0.0073 8.99e-4,0.0024 0.0018,0.0048 0.0027,0.0073 8.94e-4,0.0024 0.0018,0.0048 0.0027,0.0073 8.9e-4,0.0024 0.0018,0.0049 0.0027,0.0073 8.86e-4,0.0024 0.0018,0.0049 0.0027,0.0073 8.81e-4,0.0024 0.0018,0.0049 0.0026,0.0073 8.77e-4,0.0024 0.0018,0.0049 0.0026,0.0073 8.73e-4,0.0024 0.0017,0.0049 0.0026,0.0073 8.69e-4,0.0024 0.0017,0.0049 0.0026,0.0073 0.0026,0.0073 0.0052,0.01464 0.0077,0.02191 0.0026,0.0074 0.0051,0.01468 0.0076,0.02196 0.0025,0.0074 0.005,0.0147 0.0075,0.022 0.0033,0.0099 0.0066,0.01965 0.0098,0.02939 0.01227,0.03704 0.02401,0.074 0.03527,0.110779 0.02442,0.07971 0.0469,0.159534 0.06797,0.238877 0.02412,0.09087 0.04657,0.181801 0.068,0.271743 0.03828,0.160733 0.07389,0.320628 0.111074,0.478613 0.02229,0.0947 0.04492,0.187765 0.06895,0.280071 0.02183,0.08385 0.0446,0.166214 0.06897,0.247426 0.0221,0.07365 0.04496,0.146236 0.06829,0.217559 0.03889,0.118897 0.07961,0.235912 0.121073,0.350408 0.04702,0.129856 0.09554,0.258002 0.143937,0.38302 0.06567,0.169654 0.134125,0.341289 0.199085,0.504809 0.06121,0.154075 0.119829,0.302214 0.177111,0.451435 0.0487,0.126872 0.09492,0.250611 0.138783,0.373416 0.01364,0.03819 0.02775,0.07565 0.04168,0.111708 0.03344,0.08654 0.06771,0.170073 0.09955,0.251803 0.01946,0.04995 0.03745,0.09771 0.05413,0.145132 0.01576,0.0448 0.02984,0.08784 0.04233,0.130009 0.01218,0.04113 0.02256,0.08047 0.03131,0.118476 0.0092,0.0401 0.0165,0.07802 0.02211,0.113957 0.0012,0.0079 0.0023,0.0153 0.0032,0.02199 0.0019,0.01418 0.0034,0.0277 0.0046,0.0399 8.47e-4,0.0086 0.0016,0.017 0.0023,0.02517 0.0024,0.0293 0.0046,0.06423 0.0063,0.08912 0.0019,0.02762 0.0038,0.05083 0.0062,0.07358 0.0025,0.02342 0.0053,0.04326 0.0082,0.06085 0.0039,0.02298 0.008,0.04131 0.01157,0.05517 a 0.00695216,0.00695216 90 0 0 0.01348,-0.0034 z"
         id="path-1-3"
         inkscape:path-effect="#path-effect41;#path-effect42"
         inkscape:original-d="m 88.431419,86.401389 c -0.03029,-0.119351 -0.023,-0.23986 -0.04171,-0.361512 -0.04757,-0.309215 -0.188476,-0.586129 -0.291991,-0.875972 -0.27201,-0.761628 -0.615387,-1.504387 -0.848163,-2.280307 -0.190514,-0.635047 -0.273095,-1.30615 -0.528364,-1.918795 -0.103817,-0.249161 -0.182985,-0.516688 -0.375416,-0.709119 -0.08166,-0.08166 -0.203332,-0.114262 -0.291991,-0.180756 -0.0699,-0.05243 -0.133765,-0.115548 -0.208564,-0.152948 -0.137716,-0.06886 -0.292755,-0.0699 -0.431034,-0.139043"
         style="opacity:1;fill:#ffffff;fill-opacity:1;fill-rule:nonzero;stroke:none;stroke-width:0.377953;stroke-dasharray:none;stroke-opacity:0.876289" /><path
         d="m 91.41792,84.140359 c -0.09951,-0.128056 -0.436406,-0.560383 -0.63909,-0.823187 -0.117751,-0.152676 -0.269457,-0.350383 -0.428204,-0.561314 -0.06274,-0.08336 -0.134615,-0.179458 -0.2117,-0.28375 -0.0313,-0.04234 -0.06493,-0.08677 -0.102813,-0.135864 -0.0074,-0.0096 -0.01495,-0.01933 -0.02259,-0.02918 -0.03123,-0.04022 -0.06363,-0.08145 -0.102133,-0.130196 -0.05055,-0.06399 -0.122753,-0.154831 -0.182838,-0.231875 -0.03611,-0.04631 -0.0755,-0.09737 -0.115244,-0.150328 -0.03143,-0.04189 -0.06449,-0.08685 -0.09772,-0.133731 -0.01,-0.01412 -0.02061,-0.02921 -0.03114,-0.04455 -0.03217,-0.04684 -0.06387,-0.09581 -0.09565,-0.147435 -0.03205,-0.05207 -0.06359,-0.105849 -0.09545,-0.162105 -0.03582,-0.06325 -0.07086,-0.127494 -0.10701,-0.194714 -0.04876,-0.09066 -0.09791,-0.183788 -0.149475,-0.278211 -0.03225,-0.05905 -0.06601,-0.119608 -0.101258,-0.180052 -0.03118,-0.05347 -0.064,-0.107664 -0.09865,-0.161611 -0.01407,-0.02191 -0.0286,-0.04401 -0.04363,-0.06627 -0.01975,-0.02928 -0.03993,-0.05839 -0.06072,-0.08807 -0.02994,-0.04275 -0.04785,-0.06796 -0.07779,-0.110703 -0.0267,-0.03819 -0.05367,-0.07729 -0.07992,-0.11699 -0.02087,-0.03156 -0.04153,-0.06387 -0.06149,-0.09689 -0.01755,-0.02905 -0.03467,-0.05882 -0.05093,-0.08932 -0.0063,-0.01183 -0.01253,-0.02385 -0.01864,-0.03605 -0.03774,-0.07549 -0.07618,-0.151837 -0.115205,-0.22838 -0.06221,-0.122028 -0.126106,-0.244948 -0.191936,-0.367693 -0.0441,-0.08222 -0.08932,-0.164844 -0.135774,-0.247444 -0.03981,-0.07079 -0.08067,-0.141806 -0.122676,-0.212708 -0.03611,-0.06094 -0.07319,-0.121993 -0.111339,-0.182844 -0.02559,-0.04081 -0.05175,-0.08167 -0.07854,-0.122449 -0.0065,-0.0099 -0.01309,-0.01986 -0.01973,-0.02985 -0.0049,-0.0074 -0.0098,-0.01475 -0.01482,-0.02217 -0.0049,-0.0073 -0.0098,-0.01462 -0.01484,-0.02197 -0.0016,-0.0024 -0.0033,-0.0048 -0.0049,-0.0073 -0.0016,-0.0024 -0.0033,-0.0048 -0.0049,-0.0073 -0.0017,-0.0024 -0.0033,-0.0048 -0.005,-0.0072 -0.0017,-0.0024 -0.0033,-0.0048 -0.005,-0.0072 -0.0017,-0.0024 -0.0033,-0.0048 -0.005,-0.0072 -0.0017,-0.0024 -0.0033,-0.0048 -0.005,-0.0072 -0.0017,-0.0024 -0.0033,-0.0048 -0.005,-0.0071 -0.0017,-0.0024 -0.0033,-0.0047 -0.005,-0.0071 -0.0017,-0.0024 -0.0033,-0.0047 -0.005,-0.0071 -0.0017,-0.0024 -0.0033,-0.0047 -0.005,-0.0071 -0.0017,-0.0024 -0.0033,-0.0047 -0.005,-0.007 -0.0017,-0.0023 -0.0033,-0.0047 -0.005,-0.007 -0.0017,-0.0023 -0.0033,-0.0047 -0.005,-0.007 -0.0017,-0.0023 -0.0033,-0.0046 -0.005,-0.007 -0.0017,-0.0023 -0.0033,-0.0046 -0.005,-0.0069 -0.0017,-0.0023 -0.0033,-0.0046 -0.005,-0.0069 -0.0017,-0.0023 -0.0033,-0.0046 -0.005,-0.0069 -0.0017,-0.0023 -0.0033,-0.0046 -0.005,-0.0068 -0.0017,-0.0023 -0.0033,-0.0046 -0.005,-0.0068 -0.0017,-0.0023 -0.0033,-0.0045 -0.005,-0.0068 -0.0017,-0.0023 -0.0033,-0.0045 -0.005,-0.0068 -0.0017,-0.0023 -0.0033,-0.0045 -0.005,-0.0067 -0.0017,-0.0023 -0.0033,-0.0045 -0.005,-0.0067 -0.0017,-0.0022 -0.0033,-0.0045 -0.005,-0.0067 -0.0017,-0.0022 -0.0033,-0.0044 -0.005,-0.0067 -0.0017,-0.0022 -0.0033,-0.0044 -0.005,-0.0066 -0.0017,-0.0022 -0.0033,-0.0044 -0.005,-0.0066 -0.0017,-0.0022 -0.0033,-0.0044 -0.005,-0.0066 -0.0017,-0.0022 -0.0033,-0.0044 -0.005,-0.0065 -0.0017,-0.0022 -0.0033,-0.0043 -0.005,-0.0065 -0.0017,-0.0022 -0.0033,-0.0043 -0.005,-0.0065 -0.0017,-0.0022 -0.0033,-0.0043 -0.005,-0.0064 -0.0017,-0.0022 -0.0033,-0.0043 -0.005,-0.0064 -0.0017,-0.0021 -0.0033,-0.0043 -0.005,-0.0064 -0.0017,-0.0021 -0.0033,-0.0042 -0.005,-0.0063 -0.0017,-0.0021 -0.0033,-0.0042 -0.005,-0.0063 -0.0017,-0.0021 -0.0033,-0.0042 -0.005,-0.0063 -0.0017,-0.0021 -0.0033,-0.0042 -0.005,-0.0062 -0.0017,-0.0021 -0.0033,-0.0042 -0.005,-0.0062 -0.0017,-0.0021 -0.0033,-0.0041 -0.005,-0.0062 -0.0017,-0.0021 -0.0033,-0.0041 -0.005,-0.0061 -0.0017,-0.0021 -0.0033,-0.0041 -0.005,-0.0061 -0.0017,-0.0021 -0.0033,-0.0041 -0.0049,-0.0061 -0.0017,-0.002 -0.0033,-0.004 -0.0049,-0.006 -0.0017,-0.002 -0.0033,-0.004 -0.0049,-0.006 -0.0017,-0.002 -0.0033,-0.004 -0.0049,-0.006 -0.0017,-0.002 -0.0033,-0.004 -0.0049,-0.0059 -0.0017,-0.002 -0.0033,-0.004 -0.0049,-0.0059 -0.0017,-0.002 -0.0033,-0.0039 -0.0049,-0.0059 -0.0017,-0.002 -0.0033,-0.0039 -0.0049,-0.0058 -0.0017,-0.002 -0.0033,-0.0039 -0.0049,-0.0058 -0.0017,-0.002 -0.0033,-0.0039 -0.0049,-0.0058 -0.0017,-0.0019 -0.0033,-0.0038 -0.0049,-0.0057 -0.0017,-0.0019 -0.0033,-0.0038 -0.0049,-0.0057 -0.0017,-0.0019 -0.0033,-0.0038 -0.0049,-0.0057 -0.0017,-0.0019 -0.0033,-0.0038 -0.0049,-0.0056 -0.0017,-0.0019 -0.0033,-0.0037 -0.0049,-0.0056 -0.0017,-0.0019 -0.0033,-0.0037 -0.0049,-0.0055 -0.0017,-0.0019 -0.0033,-0.0037 -0.0049,-0.0055 -0.0017,-0.0019 -0.0033,-0.0037 -0.0049,-0.0055 -0.0017,-0.0019 -0.0033,-0.0036 -0.0049,-0.0054 -0.0017,-0.0018 -0.0033,-0.0036 -0.0049,-0.0054 -0.0017,-0.0018 -0.0033,-0.0036 -0.0049,-0.0053 -0.0017,-0.0018 -0.0033,-0.0036 -0.0049,-0.0053 -0.0017,-0.0018 -0.0033,-0.0035 -0.0049,-0.0053 -0.0017,-0.0018 -0.0033,-0.0035 -0.0049,-0.0052 -0.0017,-0.0018 -0.0033,-0.0035 -0.0049,-0.0052 -0.0017,-0.0018 -0.0033,-0.0035 -0.0049,-0.0051 -0.0017,-0.0018 -0.0033,-0.0035 -0.0049,-0.0051 -0.0017,-0.0018 -0.0033,-0.0034 -0.0049,-0.0051 -0.0017,-0.0018 -0.0033,-0.0034 -0.0049,-0.005 -0.0017,-0.0017 -0.0033,-0.0034 -0.0049,-0.005 -0.0017,-0.0017 -0.0033,-0.0034 -0.0049,-0.0049 -0.0017,-0.0018 -0.0034,-0.0034 -0.0049,-0.0049 a 0.01390431,0.01390431 90 0 0 -0.0197,0.01962 c 0.0015,0.0015 0.0031,0.0031 0.0048,0.0049 0.0015,0.0015 0.0031,0.0032 0.0048,0.0049 0.0015,0.0015 0.0031,0.0032 0.0048,0.0049 0.0015,0.0016 0.0031,0.0032 0.0048,0.0049 0.0015,0.0016 0.0032,0.0033 0.0048,0.005 0.0015,0.0016 0.0032,0.0033 0.0048,0.005 0.0016,0.0016 0.0032,0.0033 0.0048,0.0051 0.0016,0.0016 0.0032,0.0034 0.0048,0.0051 0.0016,0.0017 0.0032,0.0034 0.0048,0.0052 0.0016,0.0017 0.0032,0.0034 0.0048,0.0052 0.0016,0.0017 0.0032,0.0035 0.0048,0.0052 0.0016,0.0017 0.0032,0.0035 0.0048,0.0053 0.0016,0.0017 0.0032,0.0035 0.0049,0.0053 0.0016,0.0017 0.0032,0.0035 0.0049,0.0054 0.0016,0.0018 0.0032,0.0036 0.0049,0.0054 0.0016,0.0018 0.0032,0.0036 0.0049,0.0054 0.0016,0.0018 0.0032,0.0036 0.0049,0.0055 0.0016,0.0018 0.0032,0.0036 0.0049,0.0055 0.0016,0.0018 0.0032,0.0037 0.0049,0.0056 0.0016,0.0018 0.0032,0.0037 0.0049,0.0056 0.0016,0.0018 0.0032,0.0037 0.0049,0.0056 0.0016,0.0019 0.0032,0.0038 0.0049,0.0057 0.0016,0.0019 0.0032,0.0038 0.0049,0.0057 0.0016,0.0019 0.0032,0.0038 0.0049,0.0057 0.0016,0.0019 0.0032,0.0038 0.0049,0.0058 0.0016,0.0019 0.0032,0.0039 0.0049,0.0058 0.0016,0.0019 0.0032,0.0039 0.0049,0.0058 0.0016,0.0019 0.0032,0.0039 0.0049,0.0059 0.0016,0.0019 0.0032,0.0039 0.0049,0.0059 0.0016,0.002 0.0033,0.004 0.0049,0.006 0.0016,0.002 0.0033,0.004 0.0049,0.006 0.0016,0.002 0.0033,0.004 0.0049,0.006 0.0016,0.002 0.0033,0.004 0.0049,0.0061 0.0016,0.002 0.0033,0.004 0.0049,0.0061 0.0016,0.002 0.0033,0.0041 0.0049,0.0061 0.0016,0.002 0.0033,0.0041 0.0049,0.0062 0.0016,0.002 0.0033,0.0041 0.0049,0.0062 0.0016,0.0021 0.0033,0.0041 0.0049,0.0062 0.0016,0.0021 0.0033,0.0042 0.0049,0.0063 0.0016,0.0021 0.0033,0.0042 0.0049,0.0063 0.0016,0.0021 0.0033,0.0042 0.0049,0.0063 0.0016,0.0021 0.0033,0.0042 0.0049,0.0064 0.0016,0.0021 0.0033,0.0042 0.0049,0.0064 0.0016,0.0021 0.0033,0.0043 0.0049,0.0064 0.0016,0.0021 0.0033,0.0043 0.0049,0.0065 0.0016,0.0021 0.0033,0.0043 0.0049,0.0065 0.0016,0.0022 0.0033,0.0043 0.0049,0.0065 0.0016,0.0022 0.0033,0.0044 0.0049,0.0065 0.0016,0.0022 0.0033,0.0044 0.0049,0.0066 0.0016,0.0022 0.0033,0.0044 0.0049,0.0066 0.0016,0.0022 0.0033,0.0044 0.0049,0.0066 0.0016,0.0022 0.0033,0.0044 0.0049,0.0067 0.0016,0.0022 0.0033,0.0045 0.0049,0.0067 0.0016,0.0022 0.0033,0.0045 0.0049,0.0067 0.0016,0.0022 0.0033,0.0045 0.0049,0.0068 0.0016,0.0022 0.0033,0.0045 0.0049,0.0068 0.0016,0.0023 0.0033,0.0045 0.0049,0.0068 0.0016,0.0023 0.0033,0.0046 0.0049,0.0068 0.0016,0.0023 0.0033,0.0046 0.0049,0.0069 0.0016,0.0023 0.0033,0.0046 0.0049,0.0069 0.0016,0.0023 0.0033,0.0046 0.0049,0.0069 0.0016,0.0023 0.0033,0.0046 0.0049,0.0069 0.0016,0.0023 0.0033,0.0046 0.0049,0.007 0.0016,0.0023 0.0033,0.0047 0.0049,0.007 0.0016,0.0023 0.0033,0.0047 0.0049,0.007 0.0016,0.0023 0.0033,0.0047 0.0049,0.007 0.0016,0.0024 0.0033,0.0047 0.0049,0.0071 0.0016,0.0024 0.0033,0.0047 0.0049,0.0071 0.0016,0.0024 0.0033,0.0047 0.0049,0.0071 0.0016,0.0024 0.0033,0.0048 0.0049,0.0071 0.0016,0.0024 0.0033,0.0048 0.0049,0.0072 0.0016,0.0024 0.0033,0.0048 0.0049,0.0072 0.0016,0.0024 0.0033,0.0048 0.0049,0.0072 0.0016,0.0024 0.0033,0.0048 0.0049,0.0072 0.005,0.0073 0.0099,0.01459 0.01476,0.02185 0.005,0.0074 0.0099,0.01474 0.01475,0.02206 0.0066,0.0099 0.01316,0.01985 0.01964,0.02971 0.02667,0.0406 0.05273,0.0813 0.07822,0.121951 0.03801,0.06063 0.07497,0.12148 0.110976,0.182248 0.04189,0.0707 0.08264,0.141536 0.122361,0.212164 0.04635,0.08242 0.09148,0.164875 0.135506,0.246957 0.06572,0.122537 0.12952,0.245281 0.191668,0.36718 0.03898,0.07646 0.07739,0.152741 0.115107,0.228185 0.0062,0.01244 0.01256,0.02468 0.01897,0.0367 0.01654,0.031 0.0339,0.06122 0.05166,0.09061 0.0202,0.03342 0.04107,0.06606 0.06209,0.09785 0.02644,0.03999 0.05357,0.07931 0.08033,0.117586 0.02282,0.03264 0.05498,0.07808 0.0778,0.11072 0.02074,0.02962 0.04082,0.05858 0.06044,0.08767 0.0149,0.02208 0.02932,0.044 0.04328,0.06574 0.03439,0.05354 0.067,0.107393 0.09802,0.160593 0.03507,0.06015 0.0687,0.12046 0.100874,0.179372 0.05144,0.09419 0.100565,0.187268 0.14939,0.278053 0.0362,0.0673 0.07134,0.131745 0.107304,0.195247 0.03199,0.05649 0.0637,0.110563 0.09596,0.162979 0.03199,0.05197 0.06394,0.101331 0.0964,0.148596 0.01064,0.0155 0.02134,0.03073 0.03138,0.04489 0.03341,0.04714 0.06662,0.09231 0.09816,0.134346 0.03988,0.05315 0.07939,0.104356 0.115558,0.15074 0.06016,0.07713 0.13248,0.16813 0.182946,0.232011 0.03848,0.04871 0.07082,0.08988 0.101991,0.130015 0.0076,0.0098 0.01514,0.01952 0.02254,0.02912 0.03778,0.04897 0.0713,0.09325 0.102466,0.135405 0.07714,0.104369 0.149066,0.200529 0.211844,0.283943 0.158839,0.211053 0.310619,0.408856 0.428402,0.561575 0.202725,0.262855 0.539704,0.695291 0.639153,0.823267 a 0.01390431,0.01390431 90 0 0 0.02196,-0.01706 z"
         id="path-1-34"
         inkscape:path-effect="#path-effect43;#path-effect44"
         inkscape:original-d="m 91.406941,84.148891 c -0.430432,-0.5539 -0.86085,-1.10252 -1.279197,-1.668518 -0.202951,-0.274581 -0.444622,-0.555721 -0.639598,-0.834258 -0.260338,-0.371912 -0.441373,-0.815007 -0.695215,-1.195771 -0.117764,-0.176646 -0.264197,-0.361542 -0.361513,-0.556173 -0.298926,-0.597853 -0.755119,-1.478144 -1.167962,-1.890986"
         style="opacity:0.615044;fill:#ffffff;fill-opacity:1;fill-rule:nonzero;stroke:none;stroke-width:0.377953;stroke-dasharray:none;stroke-opacity:0.876289" /><path
         d="m 92.643809,81.14147 c -0.01125,-0.03657 -0.02463,-0.0803 -0.03978,-0.130352 -0.002,-0.0067 -0.02362,-0.07831 -0.02565,-0.08501 -0.0055,-0.01826 -0.01273,-0.04228 -0.0196,-0.06473 -0.0045,-0.01477 -0.0099,-0.03212 -0.01548,-0.04946 -0.0043,-0.01319 -0.0092,-0.02796 -0.01465,-0.04296 -0.0039,-0.01062 -0.0082,-0.02191 -0.01311,-0.03361 -0.0041,-0.0099 -0.0086,-0.01994 -0.01345,-0.03048 -0.007,-0.01513 -0.01299,-0.02736 -0.01982,-0.04119 -0.0077,-0.01563 -0.01518,-0.0305 -0.02389,-0.04785 -0.0098,-0.01951 -0.02063,-0.04114 -0.0313,-0.06257 -0.01471,-0.02954 -0.02992,-0.06033 -0.04556,-0.09233 -0.02833,-0.05793 -0.05697,-0.117439 -0.08652,-0.179605 -0.0177,-0.03723 -0.03558,-0.07513 -0.05413,-0.114615 -0.06774,-0.144197 -0.150116,-0.321879 -0.217855,-0.466074 -0.05674,-0.120902 -0.116203,-0.246382 -0.177464,-0.372019 -0.05295,-0.108599 -0.108441,-0.219767 -0.166444,-0.331494 -0.05121,-0.09864 -0.104988,-0.198892 -0.1615,-0.299486 -0.0016,-0.0029 -0.0032,-0.0058 -0.0049,-0.0087 -0.0016,-0.0029 -0.0033,-0.0058 -0.0049,-0.0087 -0.0016,-0.0029 -0.0033,-0.0058 -0.0049,-0.0087 -0.0016,-0.0029 -0.0033,-0.0058 -0.0049,-0.0087 -0.0016,-0.0029 -0.0033,-0.0058 -0.0049,-0.0087 -0.0016,-0.0029 -0.0033,-0.0058 -0.005,-0.0087 -0.0016,-0.0029 -0.0033,-0.0058 -0.005,-0.0087 -0.0016,-0.0029 -0.0033,-0.0058 -0.005,-0.0087 -0.0017,-0.0029 -0.0033,-0.0058 -0.005,-0.0087 -0.0017,-0.0029 -0.0033,-0.0058 -0.005,-0.0087 -0.0017,-0.0029 -0.0033,-0.0058 -0.005,-0.0087 -0.0017,-0.0029 -0.0033,-0.0058 -0.005,-0.0087 -0.0017,-0.0029 -0.0033,-0.0057 -0.005,-0.0087 -0.0017,-0.0029 -0.0033,-0.0057 -0.005,-0.0086 -0.0017,-0.0029 -0.0034,-0.0057 -0.005,-0.0086 -0.0017,-0.0029 -0.0034,-0.0057 -0.0051,-0.0086 -0.0017,-0.0029 -0.0034,-0.0057 -0.0051,-0.0086 -0.0017,-0.0029 -0.0034,-0.0057 -0.0051,-0.0086 -0.0017,-0.0029 -0.0034,-0.0057 -0.0051,-0.0086 -0.0017,-0.0029 -0.0034,-0.0057 -0.0051,-0.0086 -0.0017,-0.0029 -0.0034,-0.0057 -0.0051,-0.0086 -0.0017,-0.0029 -0.0034,-0.0057 -0.0051,-0.0086 -0.0017,-0.0029 -0.0034,-0.0057 -0.0051,-0.0086 -0.0017,-0.0029 -0.0034,-0.0057 -0.0051,-0.0086 -0.0017,-0.0029 -0.0034,-0.0057 -0.0052,-0.0086 -0.0017,-0.0029 -0.0034,-0.0057 -0.0052,-0.0086 -0.0017,-0.0029 -0.0034,-0.0057 -0.0052,-0.0086 -0.0017,-0.0028 -0.0035,-0.0057 -0.0052,-0.0086 -0.0017,-0.0028 -0.0035,-0.0057 -0.0052,-0.0086 -0.0017,-0.0028 -0.0035,-0.0057 -0.0052,-0.0085 -0.0017,-0.0028 -0.0035,-0.0057 -0.0052,-0.0085 -0.0017,-0.0028 -0.0035,-0.0057 -0.0052,-0.0085 -0.0018,-0.0028 -0.0035,-0.0057 -0.0053,-0.0085 -0.0018,-0.0028 -0.0035,-0.0057 -0.0053,-0.0085 -0.0018,-0.0028 -0.0035,-0.0057 -0.0053,-0.0085 -0.0018,-0.0028 -0.0035,-0.0057 -0.0053,-0.0085 -0.0018,-0.0028 -0.0035,-0.0057 -0.0053,-0.0085 -0.0018,-0.0028 -0.0035,-0.0057 -0.0053,-0.0085 -0.0018,-0.0028 -0.0035,-0.0057 -0.0053,-0.0085 -0.0018,-0.0028 -0.0036,-0.0056 -0.0053,-0.0085 -0.0018,-0.0028 -0.0036,-0.0056 -0.0053,-0.0085 -0.0018,-0.0028 -0.0036,-0.0056 -0.0054,-0.0085 -0.0018,-0.0028 -0.0036,-0.0056 -0.0054,-0.0085 -0.0018,-0.0028 -0.0036,-0.0056 -0.0054,-0.0084 -0.0018,-0.0028 -0.0036,-0.0056 -0.0054,-0.0084 -0.0018,-0.0028 -0.0036,-0.0056 -0.0054,-0.0084 -0.0018,-0.0028 -0.0036,-0.0056 -0.0054,-0.0084 -0.0018,-0.0028 -0.0036,-0.0056 -0.0054,-0.0084 -0.0018,-0.0028 -0.0036,-0.0056 -0.0055,-0.0084 -0.0018,-0.0028 -0.0036,-0.0056 -0.0055,-0.0084 -0.0018,-0.0028 -0.0037,-0.0056 -0.0055,-0.0084 -0.0018,-0.0028 -0.0037,-0.0056 -0.0055,-0.0084 -0.0018,-0.0028 -0.0037,-0.0056 -0.0055,-0.0084 -0.0018,-0.0028 -0.0037,-0.0056 -0.0055,-0.0084 -0.0018,-0.0028 -0.0037,-0.0056 -0.0055,-0.0084 -0.0019,-0.0028 -0.0037,-0.0056 -0.0055,-0.0084 -0.0019,-0.0028 -0.0037,-0.0056 -0.0056,-0.0084 -0.0019,-0.0028 -0.0037,-0.0056 -0.0056,-0.0083 -0.0019,-0.0028 -0.0037,-0.0056 -0.0056,-0.0083 -0.0019,-0.0028 -0.0037,-0.0056 -0.0056,-0.0083 -0.0019,-0.0028 -0.0037,-0.0056 -0.0056,-0.0083 -0.0019,-0.0028 -0.0038,-0.0055 -0.0056,-0.0083 -0.0019,-0.0028 -0.0038,-0.0055 -0.0056,-0.0083 -0.0019,-0.0028 -0.0038,-0.0055 -0.0057,-0.0083 -0.0019,-0.0028 -0.0038,-0.0055 -0.0057,-0.0083 -0.0019,-0.0028 -0.0038,-0.0055 -0.0057,-0.0083 -0.0019,-0.0028 -0.0038,-0.0055 -0.0057,-0.0083 -0.0019,-0.0028 -0.0038,-0.0055 -0.0057,-0.0083 -0.0019,-0.0028 -0.0038,-0.0055 -0.0057,-0.0083 -0.0019,-0.0028 -0.0038,-0.0055 -0.0057,-0.0083 -0.0019,-0.0028 -0.0038,-0.0055 -0.0058,-0.0082 -0.0019,-0.0028 -0.0039,-0.0055 -0.0058,-0.0082 -0.0019,-0.0028 -0.0039,-0.0055 -0.0058,-0.0082 -0.0019,-0.0028 -0.0039,-0.0055 -0.0058,-0.0082 -0.0019,-0.0027 -0.0039,-0.0055 -0.0058,-0.0082 -0.002,-0.0027 -0.0039,-0.0055 -0.0058,-0.0082 -0.002,-0.0027 -0.0039,-0.0055 -0.0058,-0.0082 -0.002,-0.0027 -0.0039,-0.0055 -0.0059,-0.0082 -0.002,-0.0027 -0.0039,-0.0055 -0.0059,-0.0082 -0.002,-0.0027 -0.0039,-0.0055 -0.0059,-0.0082 -0.002,-0.0027 -0.0039,-0.0054 -0.0059,-0.0082 -0.002,-0.0027 -0.004,-0.0054 -0.0059,-0.0082 -0.002,-0.0027 -0.004,-0.0054 -0.0059,-0.0081 -0.002,-0.0027 -0.004,-0.0054 -0.006,-0.0081 -0.002,-0.0027 -0.004,-0.0054 -0.006,-0.0081 -0.002,-0.0027 -0.004,-0.0054 -0.006,-0.0081 -0.002,-0.0027 -0.004,-0.0054 -0.006,-0.0081 -0.002,-0.0027 -0.004,-0.0054 -0.006,-0.0081 -0.002,-0.0027 -0.004,-0.0054 -0.006,-0.0081 -0.0031,-0.0041 -0.0062,-0.0084 -0.0095,-0.01261 -0.0046,-0.006 -0.0092,-0.01186 -0.01393,-0.01768 -0.0018,-0.0022 -0.0035,-0.0043 -0.0053,-0.0065 -0.0018,-0.0021 -0.0036,-0.0043 -0.0054,-0.0064 -0.0018,-0.0021 -0.0036,-0.0042 -0.0055,-0.0063 -0.0024,-0.0028 -0.0049,-0.0056 -0.0074,-0.0083 -0.0031,-0.0034 -0.0062,-0.0069 -0.0094,-0.01025 -0.01629,-0.01754 -0.03334,-0.03432 -0.05093,-0.05046 -0.01887,-0.01731 -0.03836,-0.03388 -0.05824,-0.04989 -0.02201,-0.01772 -0.0445,-0.03476 -0.0672,-0.05141 -0.03073,-0.02254 -0.06193,-0.04443 -0.09286,-0.06633 -0.02646,-0.01873 -0.05275,-0.03749 -0.07859,-0.05681 -0.02141,-0.01601 -0.04247,-0.03238 -0.06295,-0.04938 -0.01836,-0.01524 -0.03625,-0.03098 -0.05347,-0.04738 -0.0063,-0.006 -0.01252,-0.0121 -0.01865,-0.01829 -0.01441,-0.01455 -0.02841,-0.02955 -0.04208,-0.04488 -0.01527,-0.01712 -0.03013,-0.03465 -0.04468,-0.05249 -0.01635,-0.02005 -0.03228,-0.04047 -0.04791,-0.06117 -0.0186,-0.02464 -0.03675,-0.04965 -0.0546,-0.07492 -0.02353,-0.03332 -0.04651,-0.06706 -0.06928,-0.101026 -0.0048,-0.0071 -0.0095,-0.01423 -0.01427,-0.02135 -0.03688,-0.05532 -0.08151,-0.104921 -0.129817,-0.150603 -0.0027,-0.0025 -0.0054,-0.0051 -0.0081,-0.0076 -0.0036,-0.0033 -0.0072,-0.0067 -0.01084,-0.01 -0.02186,-0.01988 -0.04428,-0.03902 -0.06694,-0.05765 -0.02842,-0.02337 -0.05734,-0.04605 -0.08613,-0.06846 -0.02684,-0.0209 -0.05347,-0.04148 -0.07988,-0.06249 -0.0214,-0.01702 -0.04249,-0.0342 -0.06311,-0.05184 -0.01855,-0.01586 -0.03667,-0.03205 -0.05418,-0.04878 A 0.1177088,0.1177088 90 0 0 89.559156,76.50778 c 4.96e-4,9.82e-4 0.001,0.002 0.0015,0.003 0.01774,0.03518 0.03721,0.06968 0.06196,0.100327 0.02475,0.03065 0.05344,0.05785 0.08193,0.08505 0.01796,0.01715 0.03647,0.03368 0.05531,0.0498 0.02096,0.01792 0.04232,0.03531 0.06387,0.05246 0.02656,0.02113 0.05337,0.04185 0.08011,0.06267 0.02877,0.0224 0.05745,0.04489 0.08555,0.068 0.0224,0.01842 0.04446,0.03725 0.06589,0.05675 0.0036,0.0032 0.0071,0.0065 0.01062,0.0098 0.0026,0.0024 0.0053,0.0049 0.0079,0.0074 0.02339,0.02212 0.04678,0.04432 0.06805,0.06849 0.02126,0.02417 0.03988,0.05054 0.05774,0.07733 0.0048,0.0071 0.0095,0.01428 0.01431,0.02141 0.02284,0.03407 0.04596,0.06802 0.06967,0.101583 0.01798,0.02546 0.03631,0.05072 0.05512,0.07563 0.0158,0.02093 0.03195,0.04163 0.04855,0.06199 0.01477,0.01811 0.02989,0.03596 0.04548,0.05343 0.01395,0.01564 0.02828,0.031 0.04307,0.04593 0.0063,0.0064 0.01273,0.01268 0.01923,0.01887 0.01774,0.0169 0.03612,0.03306 0.05489,0.04864 0.02094,0.01738 0.04238,0.03404 0.06406,0.05025 0.02615,0.01955 0.05269,0.03849 0.07918,0.05724 0.03107,0.022 0.062,0.0437 0.09248,0.06606 0.02247,0.01648 0.04461,0.03326 0.0662,0.05065 0.0195,0.0157 0.03853,0.03188 0.05689,0.04872 0.01711,0.0157 0.03362,0.03196 0.04935,0.0489 0.003,0.0033 0.0061,0.0066 0.009,0.0099 0.0024,0.0027 0.0048,0.0053 0.0071,0.008 0.0018,0.002 0.0035,0.0041 0.0053,0.0061 0.0017,0.002 0.0035,0.0041 0.0052,0.0062 0.0017,0.0021 0.0034,0.0042 0.0051,0.0062 0.0046,0.0056 0.009,0.01126 0.0134,0.017 0.0031,0.004 0.0061,0.0082 0.0093,0.0124 0.002,0.0027 0.004,0.0053 0.006,0.008 0.002,0.0027 0.004,0.0054 0.006,0.0081 0.002,0.0027 0.004,0.0054 0.006,0.0081 0.002,0.0027 0.004,0.0054 0.006,0.0081 0.002,0.0027 0.004,0.0054 0.0059,0.0081 0.002,0.0027 0.004,0.0054 0.0059,0.0081 0.002,0.0027 0.0039,0.0054 0.0059,0.0081 0.002,0.0027 0.0039,0.0054 0.0059,0.0081 0.002,0.0027 0.0039,0.0054 0.0059,0.0081 0.0019,0.0027 0.0039,0.0054 0.0059,0.0081 0.0019,0.0027 0.0039,0.0054 0.0059,0.0081 0.0019,0.0027 0.0039,0.0054 0.0058,0.0082 0.0019,0.0027 0.0039,0.0054 0.0058,0.0082 0.0019,0.0027 0.0039,0.0054 0.0058,0.0082 0.0019,0.0027 0.0039,0.0054 0.0058,0.0082 0.0019,0.0027 0.0038,0.0055 0.0058,0.0082 0.0019,0.0027 0.0038,0.0055 0.0058,0.0082 0.0019,0.0027 0.0038,0.0055 0.0057,0.0082 0.0019,0.0027 0.0038,0.0055 0.0057,0.0082 0.0019,0.0027 0.0038,0.0055 0.0057,0.0082 0.0019,0.0027 0.0038,0.0055 0.0057,0.0082 0.0019,0.0027 0.0038,0.0055 0.0057,0.0082 0.0019,0.0027 0.0038,0.0055 0.0057,0.0082 0.0019,0.0027 0.0038,0.0055 0.0057,0.0082 0.0019,0.0027 0.0038,0.0055 0.0056,0.0083 0.0019,0.0027 0.0038,0.0055 0.0056,0.0083 0.0019,0.0028 0.0037,0.0055 0.0056,0.0083 0.0019,0.0028 0.0037,0.0055 0.0056,0.0083 0.0019,0.0028 0.0037,0.0055 0.0056,0.0083 0.0019,0.0028 0.0037,0.0055 0.0056,0.0083 0.0019,0.0028 0.0037,0.0055 0.0056,0.0083 0.0018,0.0028 0.0037,0.0055 0.0056,0.0083 0.0018,0.0028 0.0037,0.0055 0.0055,0.0083 0.0018,0.0028 0.0037,0.0056 0.0055,0.0083 0.0018,0.0028 0.0037,0.0056 0.0055,0.0083 0.0018,0.0028 0.0037,0.0056 0.0055,0.0083 0.0018,0.0028 0.0037,0.0056 0.0055,0.0083 0.0018,0.0028 0.0036,0.0056 0.0055,0.0084 0.0018,0.0028 0.0036,0.0056 0.0055,0.0084 0.0018,0.0028 0.0036,0.0056 0.0054,0.0084 0.0018,0.0028 0.0036,0.0056 0.0054,0.0084 0.0018,0.0028 0.0036,0.0056 0.0054,0.0084 0.0018,0.0028 0.0036,0.0056 0.0054,0.0084 0.0018,0.0028 0.0036,0.0056 0.0054,0.0084 0.0018,0.0028 0.0036,0.0056 0.0054,0.0084 0.0018,0.0028 0.0036,0.0056 0.0054,0.0084 0.0018,0.0028 0.0036,0.0056 0.0054,0.0084 0.0018,0.0028 0.0036,0.0056 0.0053,0.0084 0.0018,0.0028 0.0036,0.0056 0.0053,0.0084 0.0018,0.0028 0.0035,0.0056 0.0053,0.0084 0.0018,0.0028 0.0035,0.0056 0.0053,0.0085 0.0018,0.0028 0.0035,0.0056 0.0053,0.0085 0.0018,0.0028 0.0035,0.0056 0.0053,0.0085 0.0018,0.0028 0.0035,0.0057 0.0053,0.0085 0.0018,0.0028 0.0035,0.0057 0.0053,0.0085 0.0017,0.0028 0.0035,0.0057 0.0052,0.0085 0.0017,0.0028 0.0035,0.0057 0.0052,0.0085 0.0017,0.0028 0.0035,0.0057 0.0052,0.0085 0.0017,0.0028 0.0035,0.0057 0.0052,0.0085 0.0017,0.0028 0.0035,0.0057 0.0052,0.0085 0.0017,0.0028 0.0035,0.0057 0.0052,0.0085 0.0017,0.0028 0.0035,0.0057 0.0052,0.0085 0.0017,0.0028 0.0034,0.0057 0.0052,0.0085 0.0017,0.0028 0.0034,0.0057 0.0052,0.0085 0.0017,0.0029 0.0034,0.0057 0.0051,0.0085 0.0017,0.0029 0.0034,0.0057 0.0051,0.0086 0.0017,0.0029 0.0034,0.0057 0.0051,0.0086 0.0017,0.0029 0.0034,0.0057 0.0051,0.0086 0.0017,0.0029 0.0034,0.0057 0.0051,0.0086 0.0017,0.0029 0.0034,0.0057 0.0051,0.0086 0.0017,0.0029 0.0034,0.0057 0.0051,0.0086 0.0017,0.0029 0.0034,0.0057 0.0051,0.0086 0.0017,0.0029 0.0034,0.0057 0.0051,0.0086 0.0017,0.0029 0.0034,0.0058 0.005,0.0086 0.0017,0.0029 0.0034,0.0058 0.005,0.0086 0.0017,0.0029 0.0034,0.0058 0.005,0.0086 0.0017,0.0029 0.0033,0.0058 0.005,0.0086 0.0017,0.0029 0.0033,0.0058 0.005,0.0086 0.0017,0.0029 0.0033,0.0058 0.005,0.0086 0.0017,0.0029 0.0033,0.0058 0.005,0.0086 0.0017,0.0029 0.0033,0.0058 0.005,0.0086 0.0017,0.0029 0.0033,0.0058 0.005,0.0087 0.0017,0.0029 0.0033,0.0058 0.0049,0.0087 0.0017,0.0029 0.0033,0.0058 0.0049,0.0087 0.0017,0.0029 0.0033,0.0058 0.0049,0.0087 0.0017,0.0029 0.0033,0.0058 0.0049,0.0087 0.0017,0.0029 0.0033,0.0058 0.0049,0.0087 0.0017,0.0029 0.0033,0.0058 0.0049,0.0087 0.0017,0.0029 0.0033,0.0058 0.0049,0.0087 0.05634,0.100279 0.109966,0.200254 0.16106,0.298672 0.05787,0.111472 0.113252,0.222425 0.16613,0.330869 0.06118,0.125461 0.12057,0.250801 0.177284,0.371645 0.07852,0.16731 0.13934,0.298772 0.21786,0.466082 0.01856,0.03952 0.03646,0.07746 0.05418,0.114733 0.02959,0.06224 0.05827,0.12184 0.08666,0.179882 0.01568,0.03206 0.03091,0.06291 0.04565,0.09251 0.01069,0.02147 0.02155,0.04314 0.03134,0.06264 0.0087,0.01738 0.01614,0.03216 0.02381,0.0477 0.0068,0.01374 0.01262,0.02577 0.01815,0.03762 0.0061,0.01321 0.01043,0.02296 0.01439,0.03245 0.0047,0.01125 0.0089,0.02214 0.01264,0.03241 0.0053,0.01455 0.01011,0.02897 0.01432,0.042 0.0055,0.01713 0.01084,0.03432 0.01535,0.04905 0.0068,0.02237 0.01405,0.04633 0.01956,0.06461 -0.0057,-0.01897 0.03137,0.104013 0.02566,0.08505 0.01516,0.05009 0.02855,0.09386 0.03982,0.130472 a 0.01390431,0.01390431 90 0 0 0.02658,-0.0082 z"
         id="path-1-9"
         inkscape:path-effect="#path-effect45;#path-effect46"
         inkscape:original-d="M 92.63052,81.145559 C 92.451562,80.563944 92.580876,80.921878 92.2412,80.200066 91.873797,79.419335 91.533679,78.635646 91.01762,77.947568 90.875639,77.75826 90.651128,77.664501 90.489257,77.50263 90.387208,77.400581 90.291598,77.261759 90.21117,77.141118 90.038477,76.882079 89.700783,76.759941 89.571572,76.50152"
         style="opacity:0.778761;fill:#ffffff;fill-opacity:1;fill-rule:nonzero;stroke:none;stroke-width:0.377953;stroke-dasharray:none;stroke-opacity:0.876289" /><path
         d="m 93.561704,78.834112 c -0.001,-0.0042 -0.0021,-0.0086 -0.0033,-0.01336 -0.0011,-0.0043 -0.0022,-0.0087 -0.0034,-0.0134 -0.0011,-0.0043 -0.0022,-0.0087 -0.0034,-0.01339 -0.0011,-0.0043 -0.0023,-0.0088 -0.0034,-0.01338 -0.0011,-0.0043 -0.0023,-0.0088 -0.0035,-0.01338 -0.0012,-0.0044 -0.0023,-0.0088 -0.0035,-0.01337 -0.0012,-0.0044 -0.0024,-0.0088 -0.0036,-0.01336 -0.0012,-0.0044 -0.0024,-0.0088 -0.0036,-0.01335 -0.0012,-0.0044 -0.0024,-0.0088 -0.0037,-0.01335 -0.0012,-0.0044 -0.0025,-0.0088 -0.0037,-0.01334 -0.0012,-0.0044 -0.0025,-0.0088 -0.0038,-0.01333 -0.0013,-0.0044 -0.0025,-0.0088 -0.0038,-0.01333 -0.0013,-0.0044 -0.0026,-0.0088 -0.0039,-0.01332 -0.0013,-0.0044 -0.0026,-0.0088 -0.0039,-0.01331 -0.0013,-0.0044 -0.0026,-0.0088 -0.0039,-0.01331 -0.0013,-0.0044 -0.0026,-0.0088 -0.004,-0.0133 -0.0013,-0.0044 -0.0027,-0.0088 -0.004,-0.01329 -0.0013,-0.0044 -0.0027,-0.0088 -0.0041,-0.01328 -0.0014,-0.0044 -0.0027,-0.0088 -0.0041,-0.01328 -0.0014,-0.0044 -0.0028,-0.0088 -0.0042,-0.01327 -0.0014,-0.0044 -0.0028,-0.0088 -0.0042,-0.01326 -0.0014,-0.0044 -0.0028,-0.0088 -0.0042,-0.01325 -0.0014,-0.0044 -0.0028,-0.0088 -0.0043,-0.01325 -0.0014,-0.0044 -0.0029,-0.0088 -0.0043,-0.01324 -0.0015,-0.0044 -0.0029,-0.0088 -0.0044,-0.01323 -0.0019,-0.0058 -0.0032,-0.0095 -0.0044,-0.01322 -0.0015,-0.0043 -0.0029,-0.0087 -0.0045,-0.01322 -0.0015,-0.0043 -0.003,-0.0087 -0.0045,-0.01321 -0.0015,-0.0043 -0.003,-0.0087 -0.0045,-0.0132 -0.0015,-0.0043 -0.003,-0.0087 -0.0046,-0.01319 -0.0015,-0.0044 -0.0031,-0.0087 -0.0046,-0.01319 -0.0015,-0.0044 -0.0031,-0.0087 -0.0047,-0.01318 -0.0015,-0.0044 -0.0031,-0.0087 -0.0047,-0.01317 -0.0016,-0.0044 -0.0031,-0.0087 -0.0047,-0.01316 -0.0016,-0.0044 -0.0032,-0.0087 -0.0048,-0.01316 -0.0016,-0.0044 -0.0032,-0.0087 -0.0048,-0.01315 -0.0016,-0.0044 -0.0032,-0.0087 -0.0048,-0.01314 -0.0016,-0.0044 -0.0032,-0.0087 -0.0049,-0.01313 -0.0016,-0.0044 -0.0033,-0.0087 -0.0049,-0.01313 -0.0016,-0.0044 -0.0033,-0.0087 -0.005,-0.01312 -0.0017,-0.0044 -0.0033,-0.0087 -0.005,-0.01311 -0.0017,-0.0044 -0.0033,-0.0087 -0.005,-0.0131 -0.0017,-0.0044 -0.0034,-0.0087 -0.0051,-0.01309 -0.0017,-0.0044 -0.0034,-0.0087 -0.0051,-0.01309 -0.0017,-0.0043 -0.0034,-0.0087 -0.0051,-0.01308 -0.0017,-0.0043 -0.0034,-0.0087 -0.0052,-0.01307 -0.0017,-0.0043 -0.0035,-0.0087 -0.0052,-0.01306 -0.0017,-0.0043 -0.0035,-0.0087 -0.0052,-0.01306 -0.0018,-0.0043 -0.0035,-0.0087 -0.0053,-0.01305 -0.0018,-0.0043 -0.0035,-0.0087 -0.0053,-0.01304 -0.0018,-0.0043 -0.0036,-0.0087 -0.0054,-0.01303 -0.0018,-0.0043 -0.0036,-0.0087 -0.0054,-0.01302 -0.0018,-0.0043 -0.0036,-0.0087 -0.0054,-0.01301 -0.0018,-0.0043 -0.0036,-0.0087 -0.0055,-0.01301 -0.0018,-0.0043 -0.0037,-0.0087 -0.0055,-0.013 -0.0018,-0.0043 -0.0037,-0.0087 -0.0055,-0.01299 -0.0019,-0.0043 -0.0037,-0.0086 -0.0056,-0.01298 -0.0019,-0.0043 -0.0037,-0.0086 -0.0056,-0.01298 -0.0019,-0.0043 -0.0037,-0.0086 -0.0056,-0.01297 -0.0019,-0.0043 -0.0038,-0.0086 -0.0057,-0.01296 -0.0019,-0.0043 -0.0038,-0.0086 -0.0057,-0.01295 -0.0019,-0.0043 -0.0038,-0.0086 -0.0057,-0.01294 -0.0019,-0.0043 -0.0038,-0.0086 -0.0058,-0.01293 -0.0019,-0.0043 -0.0039,-0.0086 -0.0058,-0.01293 -0.0019,-0.0043 -0.0039,-0.0086 -0.0058,-0.01292 -0.002,-0.0043 -0.0039,-0.0086 -0.0058,-0.01291 -0.002,-0.0043 -0.0039,-0.0086 -0.0059,-0.0129 -0.002,-0.0043 -0.0039,-0.0086 -0.0059,-0.01289 -0.002,-0.0043 -0.004,-0.0086 -0.0059,-0.01288 -0.002,-0.0043 -0.004,-0.0086 -0.006,-0.01288 -0.002,-0.0043 -0.004,-0.0086 -0.006,-0.01287 -0.002,-0.0043 -0.004,-0.0086 -0.006,-0.01286 -0.002,-0.0043 -0.004,-0.0086 -0.0061,-0.01285 -0.002,-0.0043 -0.0041,-0.0086 -0.0061,-0.01284 -0.002,-0.0043 -0.0041,-0.0086 -0.0061,-0.01283 -0.0021,-0.0043 -0.0041,-0.0085 -0.0061,-0.01283 -0.0021,-0.0043 -0.0041,-0.0085 -0.0062,-0.01282 -0.0021,-0.0043 -0.0041,-0.0085 -0.0062,-0.01281 -0.0021,-0.0043 -0.0042,-0.0085 -0.0062,-0.0128 -0.0021,-0.0043 -0.0042,-0.0085 -0.0063,-0.01279 -0.0021,-0.0043 -0.0042,-0.0085 -0.0063,-0.01278 -0.0021,-0.0043 -0.0042,-0.0085 -0.0063,-0.01277 -0.0021,-0.0043 -0.0042,-0.0085 -0.0063,-0.01277 -0.0021,-0.0043 -0.0042,-0.0085 -0.0064,-0.01276 -0.0021,-0.0043 -0.0043,-0.0085 -0.0064,-0.01275 -0.0021,-0.0043 -0.0043,-0.0085 -0.0064,-0.01274 -0.0022,-0.0042 -0.0043,-0.0085 -0.0064,-0.01273 -0.0022,-0.0042 -0.0043,-0.0085 -0.0065,-0.01272 -0.0022,-0.0042 -0.0043,-0.0085 -0.0065,-0.01271 -0.0022,-0.0042 -0.0043,-0.0085 -0.0065,-0.0127 -0.0022,-0.0042 -0.0044,-0.0085 -0.0065,-0.01269 -0.0022,-0.0042 -0.0044,-0.0085 -0.0066,-0.01269 -0.0022,-0.0042 -0.0044,-0.0085 -0.0066,-0.01268 -0.0022,-0.0042 -0.0044,-0.0084 -0.0066,-0.01267 -0.0022,-0.0042 -0.0044,-0.0084 -0.0066,-0.01266 -0.0022,-0.0042 -0.0044,-0.0084 -0.0067,-0.01265 -0.0022,-0.0042 -0.0045,-0.0084 -0.0067,-0.01264 -0.0022,-0.0042 -0.0045,-0.0084 -0.0067,-0.01263 -0.0022,-0.0042 -0.0045,-0.0084 -0.0067,-0.01262 -0.0023,-0.0042 -0.0045,-0.0084 -0.0068,-0.01261 -0.0023,-0.0042 -0.0045,-0.0084 -0.0068,-0.01261 -0.0023,-0.0042 -0.0045,-0.0084 -0.0068,-0.0126 -0.0023,-0.0042 -0.0046,-0.0084 -0.0068,-0.01259 -0.0023,-0.0042 -0.0046,-0.0084 -0.0068,-0.01258 -0.0023,-0.0042 -0.0046,-0.0084 -0.0069,-0.01257 -0.0023,-0.0042 -0.0046,-0.0084 -0.0069,-0.01256 -0.0023,-0.0042 -0.0046,-0.0084 -0.0069,-0.01255 -0.0023,-0.0042 -0.0046,-0.0084 -0.0069,-0.01254 -0.0023,-0.0042 -0.0046,-0.0084 -0.007,-0.01253 -0.0023,-0.0042 -0.0046,-0.0084 -0.007,-0.01252 -0.0023,-0.0042 -0.0047,-0.0083 -0.007,-0.01252 -0.0023,-0.0042 -0.0047,-0.0083 -0.007,-0.01251 -0.0023,-0.0042 -0.0047,-0.0083 -0.007,-0.0125 -0.0024,-0.0042 -0.0047,-0.0083 -0.0071,-0.01249 -0.0024,-0.0042 -0.0047,-0.0083 -0.0071,-0.01248 -0.0024,-0.0042 -0.0047,-0.0083 -0.0071,-0.01247 -0.0024,-0.0042 -0.0047,-0.0083 -0.0071,-0.01246 -0.0024,-0.0042 -0.0048,-0.0083 -0.0071,-0.01245 -0.0024,-0.0042 -0.0048,-0.0083 -0.0071,-0.01244 -0.0024,-0.0042 -0.0048,-0.0083 -0.0072,-0.01243 -0.0024,-0.0041 -0.0048,-0.0083 -0.0072,-0.01242 -0.0024,-0.0041 -0.0048,-0.0083 -0.0072,-0.01241 -0.0024,-0.0041 -0.0048,-0.0083 -0.0072,-0.0124 -0.0024,-0.0041 -0.0048,-0.0083 -0.0072,-0.01239 -0.0024,-0.0041 -0.0048,-0.0083 -0.0072,-0.01238 -0.0024,-0.0041 -0.0048,-0.0083 -0.0073,-0.01237 -0.0024,-0.0041 -0.0049,-0.0082 -0.0073,-0.01237 -0.0024,-0.0041 -0.0049,-0.0082 -0.0073,-0.01235 -0.0024,-0.0041 -0.0049,-0.0082 -0.0073,-0.01235 -0.0024,-0.0041 -0.0049,-0.0082 -0.0073,-0.01234 -0.0025,-0.0041 -0.0049,-0.0082 -0.0073,-0.01233 -0.0025,-0.0041 -0.0049,-0.0082 -0.0074,-0.01232 -0.0025,-0.0041 -0.0049,-0.0082 -0.0074,-0.01231 -0.0025,-0.0041 -0.0049,-0.0082 -0.0074,-0.0123 -0.0025,-0.0041 -0.0049,-0.0082 -0.0074,-0.01229 -0.0025,-0.0041 -0.0049,-0.0082 -0.0074,-0.01228 -0.0025,-0.0041 -0.005,-0.0082 -0.0074,-0.01227 -0.0025,-0.0041 -0.005,-0.0082 -0.0074,-0.01226 -0.0025,-0.0041 -0.005,-0.0082 -0.0075,-0.01225 -0.0025,-0.0041 -0.005,-0.0082 -0.0075,-0.01224 -0.0025,-0.0041 -0.005,-0.0082 -0.0075,-0.01223 -0.0025,-0.0041 -0.005,-0.0081 -0.0075,-0.01222 -0.0025,-0.0041 -0.005,-0.0081 -0.0075,-0.01221 -0.0025,-0.0041 -0.005,-0.0081 -0.0075,-0.0122 -0.0025,-0.0041 -0.005,-0.0081 -0.0075,-0.01219 -0.0025,-0.0041 -0.005,-0.0081 -0.0075,-0.01218 -0.0025,-0.0041 -0.005,-0.0081 -0.0076,-0.01217 -0.0025,-0.0041 -0.005,-0.0081 -0.0076,-0.01216 -0.0025,-0.0041 -0.0051,-0.0081 -0.0076,-0.01215 -0.0025,-0.0041 -0.0051,-0.0081 -0.0076,-0.01214 -0.0025,-0.0041 -0.0051,-0.0081 -0.0076,-0.01213 -0.0025,-0.004 -0.0051,-0.0081 -0.0076,-0.01212 -0.0025,-0.004 -0.0051,-0.0081 -0.0076,-0.01211 -0.0025,-0.004 -0.0051,-0.0081 -0.0076,-0.0121 -0.0025,-0.004 -0.0051,-0.0081 -0.0076,-0.01209 -0.0026,-0.004 -0.0051,-0.0081 -0.0076,-0.01208 -0.0026,-0.004 -0.0051,-0.008 -0.0077,-0.01207 -0.0026,-0.004 -0.0051,-0.008 -0.0077,-0.01206 -0.0026,-0.004 -0.0051,-0.008 -0.0077,-0.01205 -0.0026,-0.004 -0.0051,-0.008 -0.0077,-0.01204 -0.0026,-0.004 -0.0051,-0.008 -0.0077,-0.01203 -0.0026,-0.004 -0.0051,-0.008 -0.0077,-0.01202 -0.0026,-0.004 -0.0051,-0.008 -0.0077,-0.01201 -0.0026,-0.004 -0.0051,-0.008 -0.0077,-0.012 -0.0026,-0.004 -0.0051,-0.008 -0.0077,-0.01199 -0.0026,-0.004 -0.0051,-0.008 -0.0077,-0.01198 -0.0026,-0.004 -0.0052,-0.008 -0.0077,-0.01196 -0.0026,-0.004 -0.0052,-0.008 -0.0077,-0.01196 -0.0026,-0.004 -0.0052,-0.008 -0.0077,-0.01194 -0.0026,-0.004 -0.0052,-0.008 -0.0077,-0.01193 -0.0026,-0.004 -0.0052,-0.008 -0.0077,-0.01192 -0.0026,-0.004 -0.0052,-0.0079 -0.0078,-0.01191 -0.0026,-0.004 -0.0052,-0.0079 -0.0078,-0.0119 -0.0026,-0.004 -0.0052,-0.0079 -0.0078,-0.01189 -0.0026,-0.004 -0.0052,-0.0079 -0.0078,-0.01188 -0.0026,-0.004 -0.0052,-0.0079 -0.0078,-0.01187 -0.0026,-0.004 -0.0052,-0.0079 -0.0078,-0.01186 -0.0026,-0.004 -0.0052,-0.0079 -0.0078,-0.01185 -0.0026,-0.004 -0.0052,-0.0079 -0.0078,-0.01184 -0.0026,-0.004 -0.0052,-0.0079 -0.0078,-0.01183 -0.0026,-0.0039 -0.0052,-0.0079 -0.0078,-0.01182 -0.06957,-0.105495 -0.13992,-0.210401 -0.210466,-0.31492 -0.03317,-0.04914 -0.144012,-0.212635 -0.177176,-0.261771 -0.0527,-0.07784 -0.105211,-0.155583 -0.157382,-0.233537 3.61e-4,5.39e-4 -0.02967,-0.04441 -0.02931,-0.04387 -0.02626,-0.03939 -0.04709,-0.08207 -0.06436,-0.126142 -9.73e-4,-0.0025 -0.0019,-0.005 -0.0029,-0.0074 -9.52e-4,-0.0025 -0.0019,-0.005 -0.0028,-0.0075 -0.0012,-0.0033 -0.0025,-0.0067 -0.0037,-0.01001 -0.0076,-0.02109 -0.01444,-0.0424 -0.02081,-0.06378 -0.0075,-0.02514 -0.0143,-0.05045 -0.02079,-0.07574 -0.0081,-0.03148 -0.01573,-0.06336 -0.02345,-0.09479 -0.0058,-0.02357 -0.01164,-0.04697 -0.01788,-0.07028 -0.0055,-0.0205 -0.01124,-0.04082 -0.0175,-0.06097 -0.0057,-0.01822 -0.01172,-0.03624 -0.01836,-0.05401 -9.02e-4,-0.0024 -0.0018,-0.0048 -0.0027,-0.0072 -9.23e-4,-0.0024 -0.0019,-0.0048 -0.0028,-0.0071 a 0.03165968,0.03165968 90 0 0 -0.04848,-0.04073 c 3.55e-4,7.14e-4 7.18e-4,0.0014 0.0011,0.0022 0.0079,0.01592 0.015,0.03223 0.02153,0.04876 9.02e-4,0.0023 0.0018,0.0046 0.0027,0.0069 8.84e-4,0.0023 0.0018,0.0046 0.0026,0.007 0.0064,0.0172 0.01232,0.03471 0.01785,0.05253 0.0061,0.0197 0.01178,0.03966 0.01719,0.05991 0.0062,0.02304 0.01196,0.04622 0.01774,0.06973 0.0077,0.03123 0.0154,0.0634 0.02352,0.09506 0.0065,0.02549 0.01345,0.05117 0.02107,0.07676 0.0065,0.02176 0.0135,0.04358 0.02129,0.06525 0.0012,0.0034 0.0025,0.0069 0.0038,0.0103 9.51e-4,0.0026 0.0019,0.0051 0.0029,0.0077 9.72e-4,0.0025 0.002,0.0051 0.003,0.0077 0.01799,0.04593 0.03975,0.09038 0.06712,0.131425 3.35e-4,5.03e-4 0.029,0.04341 0.02933,0.04391 0.05221,0.07802 0.10476,0.155803 0.157464,0.233659 0.267173,0.394652 -0.09002,-0.132918 0.177151,0.261734 0.07052,0.104482 0.140809,0.209298 0.210299,0.31467 0.0026,0.0039 0.0052,0.0079 0.0078,0.01181 0.0026,0.0039 0.0052,0.0079 0.0078,0.01181 0.0026,0.0039 0.0052,0.0079 0.0078,0.01182 0.0026,0.0039 0.0052,0.0079 0.0078,0.01184 0.0026,0.0039 0.0052,0.0079 0.0078,0.01184 0.0026,0.0039 0.0052,0.0079 0.0078,0.01186 0.0026,0.0039 0.0052,0.0079 0.0078,0.01187 0.0026,0.004 0.0052,0.0079 0.0078,0.01188 0.0026,0.004 0.0052,0.0079 0.0077,0.01189 0.0026,0.004 0.0052,0.0079 0.0077,0.0119 0.0026,0.004 0.0052,0.0079 0.0077,0.01191 0.0026,0.004 0.0052,0.0079 0.0077,0.01192 0.0026,0.004 0.0051,0.0079 0.0077,0.01193 0.0026,0.004 0.0051,0.008 0.0077,0.01194 0.0026,0.004 0.0051,0.008 0.0077,0.01195 0.0026,0.004 0.0051,0.008 0.0077,0.01196 0.0026,0.004 0.0051,0.008 0.0077,0.01197 0.0026,0.004 0.0051,0.008 0.0077,0.01198 0.0026,0.004 0.0051,0.008 0.0077,0.01199 0.0026,0.004 0.0051,0.008 0.0077,0.012 0.0026,0.004 0.0051,0.008 0.0077,0.01201 0.0025,0.004 0.0051,0.008 0.0077,0.01202 0.0025,0.004 0.0051,0.008 0.0077,0.01203 0.0025,0.004 0.0051,0.008 0.0076,0.01204 0.0025,0.004 0.0051,0.008 0.0076,0.01205 0.0025,0.004 0.0051,0.008 0.0076,0.01206 0.0025,0.004 0.0051,0.008 0.0076,0.01207 0.0025,0.004 0.0051,0.008 0.0076,0.01208 0.0025,0.004 0.0051,0.0081 0.0076,0.01209 0.0025,0.004 0.0051,0.0081 0.0076,0.0121 0.0025,0.004 0.0051,0.0081 0.0076,0.01211 0.0025,0.004 0.005,0.0081 0.0076,0.01212 0.0025,0.004 0.005,0.0081 0.0076,0.01213 0.0025,0.004 0.005,0.0081 0.0075,0.01214 0.0025,0.004 0.005,0.0081 0.0075,0.01215 0.0025,0.004 0.005,0.0081 0.0075,0.01215 0.0025,0.004 0.005,0.0081 0.0075,0.01216 0.0025,0.0041 0.005,0.0081 0.0075,0.01217 0.0025,0.0041 0.005,0.0081 0.0075,0.01218 0.0025,0.0041 0.005,0.0081 0.0075,0.01219 0.0025,0.0041 0.005,0.0081 0.0075,0.0122 0.0025,0.0041 0.005,0.0081 0.0075,0.01221 0.0025,0.0041 0.005,0.0081 0.0074,0.01222 0.0025,0.0041 0.0049,0.0082 0.0074,0.01223 0.0025,0.0041 0.0049,0.0082 0.0074,0.01224 0.0025,0.0041 0.0049,0.0082 0.0074,0.01225 0.0025,0.0041 0.0049,0.0082 0.0074,0.01226 0.0025,0.0041 0.0049,0.0082 0.0074,0.01227 0.0024,0.0041 0.0049,0.0082 0.0074,0.01228 0.0024,0.0041 0.0049,0.0082 0.0073,0.01229 0.0024,0.0041 0.0049,0.0082 0.0073,0.0123 0.0024,0.0041 0.0049,0.0082 0.0073,0.01231 0.0024,0.0041 0.0049,0.0082 0.0073,0.01232 0.0024,0.0041 0.0049,0.0082 0.0073,0.01232 0.0024,0.0041 0.0048,0.0082 0.0073,0.01233 0.0024,0.0041 0.0048,0.0082 0.0072,0.01234 0.0024,0.0041 0.0048,0.0082 0.0072,0.01235 0.0024,0.0041 0.0048,0.0082 0.0072,0.01236 0.0024,0.0041 0.0048,0.0082 0.0072,0.01237 0.0024,0.0041 0.0048,0.0082 0.0072,0.01238 0.0024,0.0041 0.0048,0.0083 0.0072,0.01239 0.0024,0.0041 0.0048,0.0083 0.0071,0.0124 0.0024,0.0041 0.0047,0.0083 0.0071,0.01241 0.0024,0.0041 0.0047,0.0083 0.0071,0.01241 0.0024,0.0041 0.0047,0.0083 0.0071,0.01243 0.0024,0.0041 0.0047,0.0083 0.0071,0.01243 0.0023,0.0041 0.0047,0.0083 0.0071,0.01244 0.0023,0.0041 0.0047,0.0083 0.007,0.01245 0.0023,0.0041 0.0047,0.0083 0.007,0.01246 0.0023,0.0041 0.0047,0.0083 0.007,0.01247 0.0023,0.0042 0.0046,0.0083 0.007,0.01248 0.0023,0.0042 0.0046,0.0083 0.007,0.01249 0.0023,0.0042 0.0046,0.0083 0.0069,0.0125 0.0023,0.0042 0.0046,0.0083 0.0069,0.01251 0.0023,0.0042 0.0046,0.0083 0.0069,0.01251 0.0023,0.0042 0.0046,0.0083 0.0069,0.01252 0.0023,0.0042 0.0046,0.0084 0.0068,0.01253 0.0023,0.0042 0.0045,0.0084 0.0068,0.01254 0.0023,0.0042 0.0045,0.0084 0.0068,0.01255 0.0023,0.0042 0.0045,0.0084 0.0068,0.01256 0.0022,0.0042 0.0045,0.0084 0.0068,0.01257 0.0022,0.0042 0.0045,0.0084 0.0067,0.01257 0.0022,0.0042 0.0045,0.0084 0.0067,0.01258 0.0022,0.0042 0.0045,0.0084 0.0067,0.01259 0.0022,0.0042 0.0044,0.0084 0.0067,0.0126 0.0022,0.0042 0.0044,0.0084 0.0066,0.01261 0.0022,0.0042 0.0044,0.0084 0.0066,0.01262 0.0022,0.0042 0.0044,0.0084 0.0066,0.01262 0.0022,0.0042 0.0044,0.0084 0.0066,0.01263 0.0022,0.0042 0.0044,0.0084 0.0065,0.01264 0.0022,0.0042 0.0043,0.0084 0.0065,0.01265 0.0022,0.0042 0.0043,0.0084 0.0065,0.01266 0.0022,0.0042 0.0043,0.0084 0.0065,0.01267 0.0021,0.0042 0.0043,0.0085 0.0064,0.01268 0.0021,0.0042 0.0043,0.0085 0.0064,0.01268 0.0021,0.0042 0.0043,0.0085 0.0064,0.01269 0.0021,0.0042 0.0042,0.0085 0.0064,0.0127 0.0021,0.0042 0.0042,0.0085 0.0063,0.01271 0.0021,0.0042 0.0042,0.0085 0.0063,0.01272 0.0021,0.0042 0.0042,0.0085 0.0063,0.01272 0.0021,0.0042 0.0042,0.0085 0.0063,0.01273 0.0021,0.0042 0.0042,0.0085 0.0062,0.01274 0.0021,0.0042 0.0041,0.0085 0.0062,0.01275 0.0021,0.0042 0.0041,0.0085 0.0062,0.01276 0.002,0.0042 0.0041,0.0085 0.0061,0.01276 0.002,0.0043 0.0041,0.0085 0.0061,0.01277 0.002,0.0043 0.0041,0.0085 0.0061,0.01278 0.002,0.0043 0.004,0.0085 0.0061,0.01279 0.002,0.0043 0.004,0.0085 0.006,0.0128 0.002,0.0043 0.004,0.0085 0.006,0.01281 0.002,0.0043 0.004,0.0085 0.006,0.01281 0.002,0.0043 0.004,0.0086 0.0059,0.01282 0.002,0.0043 0.0039,0.0086 0.0059,0.01283 0.002,0.0043 0.0039,0.0086 0.0059,0.01284 0.0019,0.0043 0.0039,0.0086 0.0059,0.01284 0.0019,0.0043 0.0039,0.0086 0.0058,0.01285 0.0019,0.0043 0.0039,0.0086 0.0058,0.01286 0.0019,0.0043 0.0038,0.0086 0.0058,0.01287 0.0019,0.0043 0.0038,0.0086 0.0057,0.01288 0.0019,0.0043 0.0038,0.0086 0.0057,0.01288 0.0019,0.0043 0.0038,0.0086 0.0057,0.01289 0.0019,0.0043 0.0038,0.0086 0.0056,0.0129 0.0019,0.0043 0.0037,0.0086 0.0056,0.01291 0.0019,0.0043 0.0037,0.0086 0.0056,0.01291 0.0018,0.0043 0.0037,0.0086 0.0055,0.01292 0.0018,0.0043 0.0037,0.0086 0.0055,0.01293 0.0018,0.0043 0.0036,0.0086 0.0055,0.01294 0.0018,0.0043 0.0036,0.0086 0.0054,0.01295 0.0018,0.0043 0.0036,0.0086 0.0054,0.01295 0.0018,0.0043 0.0036,0.0087 0.0054,0.01296 0.0018,0.0043 0.0036,0.0087 0.0053,0.01297 0.0018,0.0043 0.0035,0.0087 0.0053,0.01297 0.0018,0.0043 0.0035,0.0087 0.0053,0.01298 0.0017,0.0043 0.0035,0.0087 0.0052,0.01299 0.0017,0.0043 0.0035,0.0087 0.0052,0.013 0.0017,0.0043 0.0034,0.0087 0.0052,0.013 0.0017,0.0043 0.0034,0.0087 0.0051,0.01301 0.0017,0.0044 0.0034,0.0087 0.0051,0.01302 0.0017,0.0044 0.0034,0.0087 0.005,0.01303 0.0017,0.0044 0.0033,0.0087 0.005,0.01303 0.0017,0.0044 0.0033,0.0087 0.005,0.01304 0.0016,0.0044 0.0033,0.0087 0.0049,0.01305 0.0016,0.0044 0.0033,0.0087 0.0049,0.01305 0.0016,0.0044 0.0032,0.0087 0.0049,0.01306 0.0016,0.0044 0.0032,0.0087 0.0048,0.01307 0.0016,0.0044 0.0032,0.0088 0.0048,0.01308 0.0016,0.0044 0.0032,0.0088 0.0047,0.01308 0.0016,0.0044 0.0032,0.0088 0.0047,0.01309 0.0016,0.0044 0.0031,0.0088 0.0047,0.0131 0.0016,0.0044 0.0031,0.0088 0.0046,0.0131 0.0015,0.0044 0.0031,0.0088 0.0046,0.01311 0.0015,0.0044 0.0031,0.0088 0.0045,0.01312 0.0015,0.0044 0.003,0.0088 0.0045,0.01313 0.0015,0.0044 0.003,0.0088 0.0045,0.01313 0.0015,0.0045 0.003,0.0088 0.0044,0.01314 0.0012,0.0037 0.0025,0.0074 0.0037,0.01104 0.0022,0.0065 0.0036,0.0109 0.005,0.01525 0.0014,0.0044 0.0029,0.0088 0.0043,0.01316 0.0014,0.0044 0.0028,0.0088 0.0043,0.01317 0.0014,0.0044 0.0028,0.0088 0.0042,0.01317 0.0014,0.0044 0.0028,0.0088 0.0042,0.01318 0.0014,0.0044 0.0028,0.0088 0.0041,0.01319 0.0014,0.0044 0.0027,0.0088 0.0041,0.01319 0.0014,0.0044 0.0027,0.0088 0.004,0.0132 0.0013,0.0044 0.0027,0.0088 0.004,0.01321 0.0013,0.0044 0.0027,0.0089 0.004,0.01321 0.0013,0.0044 0.0026,0.0089 0.0039,0.01322 0.0013,0.0044 0.0026,0.0089 0.0039,0.01323 0.0013,0.0045 0.0026,0.0089 0.0038,0.01323 0.0013,0.0045 0.0025,0.0089 0.0038,0.01324 0.0013,0.0045 0.0025,0.0089 0.0037,0.01325 0.0012,0.0045 0.0025,0.0089 0.0037,0.01325 0.0012,0.0045 0.0025,0.0089 0.0037,0.01326 0.0012,0.0045 0.0024,0.0089 0.0036,0.01327 0.0012,0.0045 0.0024,0.0089 0.0036,0.01327 0.0012,0.0045 0.0024,0.009 0.0035,0.01328 0.0012,0.0045 0.0023,0.009 0.0035,0.01329 0.0012,0.0046 0.0023,0.009 0.0034,0.01329 0.0012,0.0046 0.0023,0.009 0.0034,0.0133 0.0012,0.0046 0.0023,0.0091 0.0033,0.01331 0.0012,0.0047 0.0023,0.0092 0.0033,0.01331 a 0.01390431,0.01390431 90 0 0 0.027,-0.0067 z"
         id="path-1-6"
         inkscape:path-effect="#path-effect49;#path-effect50"
         inkscape:original-d="M 93.548205,78.837444 C 93.268853,77.697335 92.474757,76.629386 91.851879,75.69507 91.724856,75.504535 91.722727,75.242105 91.62941,75.055471"
         style="opacity:0.778761;fill:#ffffff;fill-opacity:1;fill-rule:nonzero;stroke:none;stroke-width:0.377953;stroke-dasharray:none;stroke-opacity:0.876289" /><path
         style="fill:#f40122;fill-opacity:1;stroke-width:0.264583"
         d="m 76.924259,62.766418 1.651746,-0.235963 0.865201,0.393274 0.550584,1.494438 0.70789,-0.393274 0.235966,-2.202331 1.730402,-0.235963 1.33713,1.022511 0.629237,1.887712 -0.314618,2.123676 -1.179822,1.651746 -1.101165,0.07865 -0.471926,0.707893 v 1.887712 l 0.235963,1.494438 -1.415785,1.651749 -0.550582,2.280983 0.550582,1.887712 1.33713,1.887712 1.809057,1.101167 1.887712,-1.415785 0.707892,-1.17982 1.101164,-0.393274 0.943856,-1.101164 1.415786,-0.550582 1.022509,-1.415785 h 1.179822 l 0.157308,-0.707893 2.674257,1.651749 1.415786,0.943856 1.809056,0.943856 0.865201,0.943856 0.786548,-1.651749 -1.022511,-1.887712 -1.809057,-2.831565 -3.067532,-2.595605 -2.334471,-3.067532 -0.811715,-1.809056 -1.258475,-2.438295 -2.988876,-1.966367 -2.831568,-1.33713 -2.438295,-0.393274 -2.438296,0.865203 -2.202329,1.022509 v 1.179822 z"
         id="path7" /><path
         style="fill:#ffffff;fill-opacity:0.968627;stroke-width:0.264583"
         d="m 76.924259,62.766418 1.651746,-0.235963 0.865201,0.393274 0.550582,1.494438 -0.181044,1.571694 -0.80645,1.001109 -0.667406,0.222469 -0.194659,1.02892 0.444936,0.750832 0.639599,0.639598 0.111233,0.487834 -0.528362,0.20738 -0.639599,-0.20738 -1.056727,-1.18305 -0.81829,-1.58509 -0.516525,-1.86318 0.516525,-1.668515 z"
         id="path8"
         sodipodi:nodetypes="cccccccccccccccccc" /><path
         style="fill:#1a1a1a;fill-opacity:1;stroke-width:0.264583"
         d="m 80.345734,64.221529 0.215845,1.935183 -0.862069,1.362623 -0.695216,0.194659 0.472747,0.528365 2.323806,0.462481 0.235961,-0.353946 0.05425,-1.66582 -0.917686,-1.16796 -0.473689,-1.492221 z"
         id="path9" /><path
         style="opacity:0.778761;fill:#f1e7e0;fill-opacity:1;stroke:none;stroke-width:0.0352661;stroke-dasharray:none;stroke-opacity:0.876289"
         d="m 76.924259,62.766418 -0.62924,1.05437 -0.516526,1.668515 0.516526,1.86318 0.409145,0.792545 -0.409143,-1.482479 -0.289307,-1.097161 0.498137,-1.67289 0.569421,-0.832223 0.39128,-0.371041"
         id="path61"
         sodipodi:nodetypes="cccccccccc" /></g><path
       style="opacity:0.778761;fill:#335c25;fill-opacity:1;stroke:none;stroke-width:0.1;stroke-dasharray:none;stroke-opacity:0.876289"
       d="m 87.790543,104.10878 -0.208273,-1.47795 -0.682997,-1.8213 -2.504663,0.52509 -1.302448,2.10507 -1.527278,-0.59872 -1.77646,-0.37548 0.530555,3.53908 3.568502,0.22301 1.449713,-2.78789 2.453349,0.66909"
       id="path54"
       sodipodi:nodetypes="ccccccccccc" /><path
       style="opacity:0.778761;fill:#336b25;fill-opacity:1;stroke:none;stroke-width:0.1;stroke-dasharray:none;stroke-opacity:0.876289"
       d="m 91.359052,95.856601 -0.780616,3.345471 -2.787893,4.906708 -0.208275,-1.47795 -0.363971,-1.1216 1.046268,0.10347 0.667409,-1.863173 v 0 l 0.750832,-4.450496 0.834257,-1.973296 2.157196,1.973296 1.430118,0.751949 c 0.410638,-0.0015 1.867442,0.939228 -0.361514,-1.439434 l 2.409243,3.020631 -4.793054,-1.775576 -0.780616,3.345471 -2.787893,4.906708"
       id="path55"
       sodipodi:nodetypes="ccccccccccccccccc" /><path
       style="opacity:0.778761;fill:#336b25;fill-opacity:1;stroke:none;stroke-width:0.1;stroke-dasharray:none;stroke-opacity:0.876289"
       d="m 79.788424,102.46549 -1.959637,0.37548 -1.061839,-1.37646 -1.164489,-0.94386 -3.790754,-2.824031 -2.525948,-0.595743 5.45742,3.996984 2.230316,3.12245 3.345484,1.78426 z"
       id="path56"
       sodipodi:nodetypes="cccccccccc" /><path
       style="opacity:0.778761;fill:#336b25;fill-opacity:1;stroke:none;stroke-width:0.1;stroke-dasharray:none;stroke-opacity:0.876289"
       d="m 94.947482,96.121859 1.831282,0.03346 1.26427,-0.03933 0.27529,-0.816963 1.515954,-5.910365 0.223022,6.467935 -3.680022,1.895776 -1.429796,-1.630518"
       id="path57"
       sodipodi:nodetypes="cccccccc" /><path
       style="opacity:0.778761;fill:#336b25;fill-opacity:1;stroke:none;stroke-width:0.1;stroke-dasharray:none;stroke-opacity:0.876289"
       d="m 114.36334,90.299412 1.97499,4.31591 3.2318,2.589543 -1.23015,-5.021604 -0.55463,1.612421 v 0 l -1.54643,-2.511839 -1.87558,-0.984431"
       id="path58"
       sodipodi:nodetypes="cccccccc" /><path
       style="opacity:0.778761;fill:#336b25;fill-opacity:1;stroke:none;stroke-width:0.1;stroke-dasharray:none;stroke-opacity:0.876289"
       d="m 118.97196,98.002242 3.46958,6.702558 0.30572,-11.408032 -1.56739,5.924394 -2.20791,-1.21892"
       id="path59" /><path
       style="opacity:0.778761;fill:#336b25;fill-opacity:1;stroke:none;stroke-width:0.1;stroke-dasharray:none;stroke-opacity:0.876289"
       d="m 99.164729,87.589682 c 0.123923,0.252494 0.669549,1.798984 0.669549,1.798984 l 4.944012,2.046084 -1.90388,-4.674532 -0.52331,-0.926245 -0.0361,1.665962 -0.0274,1.263775 -0.94789,0.01162 -1.649258,0.304861"
       id="path60"
       sodipodi:nodetypes="ccccccccc" /></g></svg>
