<?xml version="1.0" encoding="UTF-8" standalone="no"?>
<!-- Created with Inkscape (http://www.inkscape.org/) -->

<svg
   width="210mm"
   height="297mm"
   viewBox="0 0 210 297"
   version="1.1"
   id="svg1"
   xml:space="preserve"
   xmlns:inkscape="http://www.inkscape.org/namespaces/inkscape"
   xmlns:sodipodi="http://sodipodi.sourceforge.net/DTD/sodipodi-0.dtd"
   xmlns="http://www.w3.org/2000/svg"
   xmlns:svg="http://www.w3.org/2000/svg"><sodipodi:namedview
     id="namedview1"
     pagecolor="#ffffff"
     bordercolor="#111111"
     borderopacity="1"
     inkscape:showpageshadow="0"
     inkscape:pageopacity="0"
     inkscape:pagecheckerboard="1"
     inkscape:deskcolor="#d1d1d1"
     inkscape:document-units="mm"
     inkscape:zoom="1.8645874"
     inkscape:cx="357.18358"
     inkscape:cy="485.36207"
     inkscape:window-width="1500"
     inkscape:window-height="978"
     inkscape:window-x="-6"
     inkscape:window-y="-6"
     inkscape:window-maximized="1"
     inkscape:current-layer="layer3" /><defs
     id="defs1" /><g
     inkscape:groupmode="layer"
     id="layer3"
     inkscape:label="Layer 2"><g
       id="g62"
       transform="matrix(-1.2733993,0,0,1.2733993,225.08832,-3.7381055)"><path
         style="opacity:1;fill:#00377d;fill-opacity:1;stroke-width:0.1;stroke-opacity:0.876289"
         d="m 135.45343,111.75688 22.06249,10.57342 5.28222,3.29266 1.34687,2.40812 -13.09558,0.27449 -21.00649,-11.38655 -26.0329,-17.418487 z"
         id="path3"
         sodipodi:nodetypes="cccccccc" /><path
         style="opacity:1;fill:#004fb4;fill-opacity:1;stroke-width:0.1;stroke-opacity:0.876289"
         d="m 100.88826,101.62901 -1.969614,6.21389 35.476894,22.06578 20.34005,12.178 8.06255,0.9449 -0.64442,-2.98185 -1.72766,-1.30387 -28.04315,-21.16417 -31.49465,-15.95268"
         id="path5"
         sodipodi:nodetypes="ccccccccc" /><path
         style="fill:#004fb4;fill-opacity:1;stroke-width:0.1;stroke-opacity:0.876289"
         d="m 99.866986,98.339263 1.021274,3.289747 37.25263,12.99828 22.89809,11.62741 8.06255,0.9449 -0.64442,-2.98185 -1.72766,-1.30387 -29.30217,-14.11896 -34.83623,-8.5849"
         id="path5-5"
         sodipodi:nodetypes="ccccccccc" /><path
         style="opacity:1;fill:#00377d;fill-opacity:1;stroke-width:0.1;stroke-opacity:0.876289"
         d="m 100.88826,101.62901 -1.969614,6.21389 57.435314,30.95569 9.3822,1.42699 -0.4257,-2.41229 -14.26103,-9.50772 -23.69127,-12.79457 z"
         id="path4"
         sodipodi:nodetypes="cccccccc" /><path
         style="opacity:1;fill:#c6011e;fill-opacity:1;stroke-width:0.1;stroke-opacity:0.876289"
         d="m 47.676079,69.985511 1.418992,2.554182 2.554182,2.979883 0.709496,7.378753 -0.141896,2.412284 -2.649961,9.70932 c 0,0 -0.602028,13.645937 -0.602028,14.950327 0,1.3044 3.110474,8.02703 3.110474,8.02703 l 1.505066,-4.5152 -0.200676,-7.62568 1.906418,4.91656 5.8196,0.50169 -3.01014,-7.32466 4.41487,3.41148 1.90641,-0.90304 -2.80945,-5.47898 5.01689,2.06749 0.20067,-5.418237 2.80946,-0.8027 4.31453,-7.425 3.41149,-1.40473 8.98312,2.4227 -5.03742,-6.81116 -18.16309,-12.345221 -11.777628,-1.844688 -3.689379,0.567597"
         id="path6" /><path
         style="opacity:1;fill:#00377d;fill-opacity:1;stroke-width:0.1;stroke-opacity:0.876289"
         d="m 83.681756,92.611823 7.69926,4.61832 -5.03742,-6.81116 -4.49156,-1.21135 z"
         id="path27" /><path
         style="opacity:1;fill:#002f6b;fill-opacity:1;stroke-width:0.1;stroke-opacity:0.876289"
         d="m 48.964862,109.97026 c 0,0 -4.410562,32.17794 -4.410562,33.06132 0,0.88337 3.121779,23.87103 3.121779,23.87103 l 3.2912,3.83128 -2.70478,-36.38153"
         id="path25"
         sodipodi:nodetypes="csccc" /><path
         style="opacity:1;fill:#003579;fill-opacity:1;stroke-width:0.1;stroke-opacity:0.876289"
         d="m 50.311974,161.91952 3.26843,16.19312 0.702366,1.39175 1.153885,-0.20068 1.254222,-7.92669 0.401352,-14.85 -5.418243,-24.88378 -1.204055,-2.9098 -2.207432,5.61892 z"
         id="path26" /><path
         style="opacity:1;fill:#00377d;fill-opacity:1;stroke-width:0.1;stroke-opacity:0.876289"
         d="m 83.681756,92.611823 -0.90304,3.31115 9.23108,5.056487 -0.62878,-3.749317 -7.69926,-4.61832"
         id="path28" /><path
         style="opacity:1;fill:#f6c000;fill-opacity:1;stroke-width:0.1;stroke-opacity:0.876289"
         d="m 48.964862,109.97026 -2.172479,13.29477 -0.53505,6.6277 1.318886,-4.92511 -0.618113,6.67562 1.304393,2.70912 2.207432,-5.61892 0.248674,-6.60816 0.248674,-6.60816 z"
         id="path7"
         sodipodi:nodetypes="cccccccccc" /><path
         style="opacity:1;fill:#ffc805;fill-opacity:1;stroke-width:0.1;stroke-opacity:0.876289"
         d="m 50.469931,128.73344 -1.103718,2.80946 1.103718,-2.80946 1.204055,2.9098 1.906418,1.40473 -0.50169,-6.82298 -1.003376,-8.2277 -1.108059,-2.48017 z"
         id="path8"
         sodipodi:nodetypes="ccccccccc" /><path
         style="opacity:1;fill:#ffc805;fill-opacity:1;stroke-width:0.1;stroke-opacity:0.876289"
         d="m 53.329558,129.63648 2.658954,3.41149 -2.408108,-19.56588 -1.505066,4.5152 1.25422,11.63919"
         id="path9" /><path
         style="opacity:1;fill:#ffc805;fill-opacity:1;stroke-width:0.1;stroke-opacity:0.876289"
         d="m 58.095606,129.43581 -3.311149,-6.17078 -1.204053,-9.78294 -0.200678,-7.62568 1.906418,4.91656 2.508448,11.38834 z"
         id="path10" /><path
         style="opacity:1;fill:#ffc805;fill-opacity:1;stroke-width:0.1;stroke-opacity:0.876289"
         d="m 57.794589,122.16131 3.511827,4.66571 0.60203,-4.66571 -3.712502,-11.1375 -2.9098,-0.25084 z"
         id="path11" /><path
         style="opacity:1;fill:#ffc805;fill-opacity:1;stroke-width:0.1;stroke-opacity:0.876289"
         d="m 61.908446,122.16131 3.35777,3.66233 1.05709,-4.50613 -5.21756,-10.04285 -2.909802,-0.25085 3.712502,11.1375"
         id="path12" /><path
         style="opacity:1;fill:#ffc805;fill-opacity:1;stroke-width:0.1;stroke-opacity:0.876289"
         d="m 67.828376,118.42372 -4.11385,-2.12764 -2.60878,-5.02142 -3.01014,-7.32466 7.17061,9.53209 z"
         id="path13" /><path
         style="opacity:1;fill:#ffc805;fill-opacity:1;stroke-width:0.1;stroke-opacity:0.876289"
         d="m 65.266216,113.48209 4.76959,2.59148 -3.21081,-5.04976 -4.31452,-3.66233 -4.41487,-3.41148 7.17061,9.53209"
         id="path14"
         sodipodi:nodetypes="cccccc" /><path
         style="opacity:1;fill:#ffc805;fill-opacity:1;stroke-width:0.1;stroke-opacity:0.876289"
         d="m 62.510476,107.36148 5.3179,4.61554 5.51858,3.5401 -11.73952,-14.53766 2.80945,5.47898 z"
         id="path15" /><path
         style="opacity:1;fill:#ffc805;fill-opacity:1;stroke-width:0.1;stroke-opacity:0.876289"
         d="m 66.624326,103.04695 9.0304,10.43514 0.8027,2.03503 h -3.11047 l -11.73952,-14.53766 z"
         id="path16" /><path
         style="opacity:1;fill:#ffc805;fill-opacity:1;stroke-width:0.1;stroke-opacity:0.876289"
         d="m 81.852036,89.207633 1.82972,3.40419 -0.90304,3.31115 0.90304,2.10709 -1.60541,0.50169 0.10034,3.712497 -2.20743,1.00338 -0.40135,2.60878 -2.00676,1.10372 -0.40135,3.05165 h -2.20743 l 0.70236,3.47031 -9.0304,-10.43514 0.20067,-5.418237 2.80946,-0.8027 4.31453,-7.425 1.70574,-0.70237 1.70575,-0.70236 z"
         id="path17" /><path
         style="opacity:1;fill:#ffc805;fill-opacity:1;stroke-width:0.1;stroke-opacity:0.876289"
         d="m 74.952366,110.01178 -8.12737,-12.383067 -0.20067,5.418237 9.43175,11.45265 z"
         id="path18" /><path
         style="opacity:1;fill:#ffc805;fill-opacity:1;stroke-width:0.1;stroke-opacity:0.876289"
         d="m 66.824996,97.628713 2.80946,-0.8027 7.92669,10.134117 -0.40135,3.05165 h -2.20743 z"
         id="path19" /><path
         style="opacity:1;fill:#7c3f9b;fill-opacity:1;stroke-width:0.1;stroke-opacity:0.876289"
         d="m 20.167906,62.008782 1.043987,1.236519 0.475912,-1.830488"
         id="path20" /><path
         style="opacity:1;fill:#ffffff;fill-opacity:1;stroke-width:0.1;stroke-opacity:0.876289"
         d="m 21.211893,63.245301 -1.418992,2.696083 -0.283797,3.47653 0.283797,2.625135 1.894904,3.050831 2.36207,2.057537 0.922343,-0.141901 -0.425696,-0.993293 -0.851395,-0.780445 -1.064244,-1.77374 0.496647,-0.851395 1.702789,-0.922342 1.064244,-0.496647 0.922346,-1.77374 v -1.986587 l 0.709496,-0.993296 -1.189223,-1.673881 -1.341266,-3.166081 -1.788212,-0.777224 -1.519899,0.593968 -0.475912,1.830488"
         id="path21" /><path
         style="opacity:1;fill:#000000;fill-opacity:1;stroke-width:0.1;stroke-opacity:0.876289"
         d="m 25.736655,73.397128 3.612163,0.426434 1.866963,-0.290573 1.560891,-1.560891 -0.994664,-1.911204 -2.30777,-2.633869 -1.454899,1.153885 0.200676,1.981673 -1.454899,1.881336 -0.903038,0.326096 z"
         id="path22" /><path
         style="opacity:1;fill:#f9f9f9;fill-opacity:1;stroke-width:0.1;stroke-opacity:0.876289"
         d="m 32.776672,71.972098 -0.994664,-1.911204 -2.30777,-2.633869 -1.947833,-0.988994 -1.189223,-1.673881 -0.01646,-3.724865 3.901773,-0.56102 4.68267,2.412288 2.412286,5.675966 -1.560891,3.121782 -2.97988,0.283797"
         id="path23" /><path
         style="opacity:1;fill:#d90121;fill-opacity:1;stroke-width:0.1;stroke-opacity:0.876289"
         d="m 20.167906,62.008782 2.207432,-3.210809 8.528716,-1.605407 15.452027,3.110473 8.227702,2.107094 13.445273,6.421623 12.44189,11.037162 3.10561,1.75232 3.12178,2.696085 23.839064,14.04801 26.88988,10.429587 26.88989,10.42959 2.41228,3.68937 -1.56089,0.4257 -44.35475,-17.28909 -16.54385,-2.70858 -1.67891,-3.13189 c 22.50022,8.41085 43.03912,20.83052 64.1384,32.2111 l 0.4257,1.1352 -0.4257,1.27709 -1.98658,0.2838 -12.97024,-3.47397 -53.651404,-28.69339 7.626774,2.32099 -5.62032,0.58557 27.50862,17.46433 29.51497,20.21226 0.42569,1.70279 1.48994,-0.46944 -1.98659,-0.2838 -64.267814,-35.11431 -0.70237,-3.61216 0.70237,-2.33719 -0.8027,-2.43943 -0.62878,-3.749317 -10.07484,-13.62232 -18.16309,-12.345221 -11.777628,-1.844688 -3.689379,0.567597 1.418992,2.554184 2.554184,2.979881 0.709496,7.378755 -0.141898,2.412282 -7.804454,-6.101658 -5.959764,-1.135195 -4.398872,-0.709496 -2.837982,-3.831275 1.560891,-1.560891 2.97988,-0.283797 1.560891,-3.121782 -2.412285,-5.675966 -4.68267,-2.412286 -2.196031,1.062708 -0.500052,4.897056 -1.189223,-1.673881 -1.359003,-1.214968 -0.706232,-0.511163 -1.448949,-0.151003 -1.611105,0.358285 z"
         id="path1"
         sodipodi:nodetypes="cccccccccccccccccccccccccccccccccccccccccccccccccccccccccccc" /><path
         style="opacity:1;fill:#808080;fill-opacity:1;stroke-width:0.1;stroke-opacity:0.876289"
         d="m 25.736655,73.397128 -1.329476,-0.903041 -0.428255,-0.344615 1.915639,-0.957818 0.922346,-1.77374 v -1.986587 l 0.709496,-0.993296 1.947833,0.988994 -1.454899,1.153885 0.200676,1.981671 -1.454899,1.881338 -0.903038,0.326094 z"
         id="path24" /><path
         style="opacity:1;fill:#00377d;fill-opacity:1;stroke-width:0.1;stroke-opacity:0.876289"
         d="m 83.681756,98.030063 7.82635,7.625677 1.20405,0.20067 0.10034,-2.43752 -0.8027,-2.43943 -9.23108,-5.056487 z"
         id="path29" /><path
         style="opacity:1;fill:#00377d;fill-opacity:1;stroke-width:0.1;stroke-opacity:0.876289"
         d="m 82.126516,100.388 6.77281,6.07044 3.91317,1.15389 -0.70237,-1.85626 -0.60202,-0.10033 -7.82635,-7.625677 -1.60541,0.50169 z"
         id="path30" /><path
         style="opacity:1;fill:#00377d;fill-opacity:1;stroke-width:0.1;stroke-opacity:0.876289"
         d="m 92.812496,107.61233 v 1.75591 l -0.8027,0.64354 -9.83311,-7.76753 -0.0502,-1.85625 6.77281,6.07044 3.91317,1.15389"
         id="path31" /><path
         style="opacity:1;fill:#00377d;fill-opacity:1;stroke-width:0.1;stroke-opacity:0.876289"
         d="m 92.009796,110.01178 v 1.76457 l -1.15388,-0.58949 -2.9098,-1.41727 -7.97686,-6.52196 2.20743,-1.00338 9.83311,7.76753"
         id="path32" /><path
         style="opacity:1;fill:#00377d;fill-opacity:1;stroke-width:0.1;stroke-opacity:0.876289"
         d="m 77.561146,106.96013 9.53209,6.52196 3.36132,1.01751 h 0.92646 l 0.32777,-1.01751 0.30101,-1.70574 -4.06368,-2.00676 -7.97686,-6.52196 -0.40135,2.60878 -2.00676,1.10372"
         id="path33" /><path
         style="opacity:1;fill:#00377d;fill-opacity:1;stroke-width:0.1;stroke-opacity:0.876289"
         d="m 77.159796,110.01178 9.1838,7.63433 3.65944,1.15388 0.6522,-0.37627 0.15051,-1.32947 0.25084,-0.65219 0.32443,-1.94246 h -0.92646 l -3.36132,-1.01751 -9.53209,-6.52196 -0.40135,3.05165"
         id="path34" /><path
         style="opacity:1;fill:#00377d;fill-opacity:1;stroke-width:0.1;stroke-opacity:0.876289"
         d="m 77.159796,110.01178 h -2.20743 l 1.10371,4.48782 11.41341,10.17016 0.57697,-1.80608 -0.25085,-0.53339 1.40473,0.38288 0.30101,-1.70574 0.6522,-0.55186 -0.15051,-1.65558 -3.65944,-1.15388 z"
         id="path35" /><path
         style="opacity:1;fill:#003e8d;fill-opacity:1;stroke-width:0.1;stroke-opacity:0.876289"
         d="m 60.002027,178.80202 1.906419,2.9098 1.20405,0.20067 0.60203,-2.4081 0.90304,-2.70913 -1.50507,-20.46891 -7.123984,-23.27838 -2.658954,-3.41149 0.250846,3.41149 -1.906418,-1.40473 5.418241,24.88378 z"
         id="path36" /><path
         style="opacity:1;fill:#003f8f;fill-opacity:1;stroke-width:0.1;stroke-opacity:0.876289"
         d="m 63.112496,156.32635 4.61554,15.55236 1.50507,1.80608 0.8027,0.10034 0.50169,-0.8027 -1.00338,-15.85338 -11.43851,-27.69324 -3.311149,-6.17078 1.204055,9.78294 7.123984,23.27838"
         id="path37" /><path
         style="opacity:1;fill:#00377d;fill-opacity:1;stroke-width:0.1;stroke-opacity:0.876289"
         d="m 74.952366,172.88209 1.50506,-0.90304 -1.50506,-9.13074 -3.61217,-13.74629 -10.03378,-22.275 -3.511827,-4.66571 0.301017,7.2745 11.43851,27.69324 z"
         id="path38" /><path
         style="opacity:1;fill:#00377d;fill-opacity:1;stroke-width:0.1;stroke-opacity:0.876289"
         d="m 76.457426,162.19611 -2.19365,-1.96826 -2.92358,-11.12583 -10.03378,-22.275 0.60203,-4.66571 3.35777,3.66233 10.08019,25.32817 1.81339,6.03071 -0.70237,4.61172 z"
         id="path39" /><path
         style="opacity:1;fill:#00377d;fill-opacity:1;stroke-width:0.1;stroke-opacity:0.876289"
         d="m 66.323306,121.31751 12.85438,31.18234 0.79157,3.27463 -0.57872,1.19519 -0.78045,0.7095 -1.45029,-0.49665 -1.81339,-6.03071 -10.08019,-25.32817 z"
         id="path40" /><path
         style="opacity:1;fill:#00377d;fill-opacity:1;stroke-width:0.1;stroke-opacity:0.876289"
         d="m 79.177686,152.49985 1.98659,-2.19943 0.2838,-3.54748 -0.9933,-2.97989 -12.6264,-25.34933 -4.11385,-2.12764 2.60878,5.02143 12.85438,31.18234"
         id="path41" /><path
         style="opacity:1;fill:#00377d;fill-opacity:1;stroke-width:0.1;stroke-opacity:0.876289"
         d="m 80.454776,143.77305 1.63184,-0.35474 0.92235,-1.2396 0.21285,-3.44308 -13.18601,-22.66206 -4.76959,-2.59148 z"
         id="path42" /><path
         style="opacity:1;fill:#00377d;fill-opacity:1;stroke-width:0.1;stroke-opacity:0.876289"
         d="m 83.221816,138.73563 1.04859,-2.48323 1.07989,-0.78044 -1.66854,-4.82457 -10.3348,-15.13027 -6.52196,-4.49331 z"
         id="path43" /><path
         style="opacity:1;fill:#00377d;fill-opacity:1;stroke-width:0.1;stroke-opacity:0.876289"
         d="m 73.346956,115.51712 h 3.11047 l 9.88617,10.73139 0.27293,1.56089 -1.26623,3.83384 -1.66854,-0.99585 z"
         id="path45" /><path
         style="opacity:1;fill:#00377d;fill-opacity:1;stroke-width:0.1;stroke-opacity:0.876289"
         d="m 76.056076,114.4996 11.41341,10.17016 v 0 1.57875 h -1.12589 l -9.88617,-10.73139 z"
         id="path44" /><path
         style="opacity:1;fill:#ad011a;fill-opacity:1;stroke-width:0.1;stroke-opacity:0.876289"
         d="m 41.432516,78.641357 -4.115065,13.970466 1.412954,15.636467 3.210809,-7.26883 2.613086,2.97054 1.703033,-8.378207 1.92118,1.43297 0.836519,0.62395 0.55186,-2.60878 2.649961,-9.70932 -7.804454,-6.101658 -2.979883,-0.567598"
         id="path47"
         sodipodi:nodetypes="cccccccccccc" /><path
         style="opacity:1;fill:#ffc700;fill-opacity:1;stroke-width:0.1;stroke-opacity:0.876289"
         d="m 49.566892,95.019933 -0.60203,14.950327 -2.172481,13.29477 -1.244788,-12.49206 -0.993293,10.54454 -1.277094,7.41593 -2.128485,-12.65987 0.993293,-6.10331 -2.837984,15.85338 -0.573627,-17.57535 3.210811,-7.26883 2.613086,2.97054 1.703033,-8.378207 2.757699,2.05692 z"
         id="path48" /><path
         style="opacity:1;fill:#0057c5;fill-opacity:1;stroke-width:0.1;stroke-opacity:0.876289"
         d="m 39.30403,125.82364 1.489943,20.00695 4.611722,9.94389 -2.908933,-20.30252 -0.851395,-22.45005 -2.341337,12.80173"
         id="path49"
         sodipodi:nodetypes="cccccc" /><path
         style="opacity:1;fill:#004fb3;fill-opacity:1;stroke-width:0.1;stroke-opacity:0.876289"
         d="m 42.212962,122.4035 1.064242,6.32994 2.128491,8.2994 -0.851395,5.99874 -0.603072,2.59164 -1.454468,-10.15126 -0.546736,-14.41669 0.262938,1.34823"
         id="path50"
         sodipodi:nodetypes="cccccccc" /><path
         style="opacity:1;fill:#0057c5;fill-opacity:1;stroke-width:0.1;stroke-opacity:0.876289"
         d="m 45.547591,110.77297 -0.993291,10.54454 -1.277096,7.41593 2.128491,8.2994 1.386686,-13.76781 -1.24479,-12.49206"
         id="path51"
         sodipodi:nodetypes="cccccc" /><path
         style="opacity:1;fill:#0057c5;fill-opacity:1;stroke-width:0.1;stroke-opacity:0.876289"
         d="m 43.951227,145.62322 1.454468,10.15126 1.386686,4.86639 -2.238081,-17.60929 -0.603073,2.59164"
         id="path52" /><path
         style="opacity:1;fill:#335c25;fill-opacity:1;stroke-width:0.1;stroke-opacity:0.876289"
         d="m 50.469931,128.73344 1.204055,2.9098 1.906418,1.40473 -0.250846,-3.41149 c 0,0 2.658954,3.41149 2.658954,3.41149 l -0.866524,-7.0405 -2.41954,-2.19059 -0.485595,3.76268 -0.743546,-1.33105 -1.003376,2.48493"
         id="path53" /><path
         style="opacity:1;fill:#335c25;fill-opacity:1;stroke-width:0.1;stroke-opacity:0.876289"
         d="m 54.784458,123.26503 3.160637,2.53353 0.150511,3.63725 z"
         id="path54"
         sodipodi:nodetypes="cccc" /><path
         style="opacity:1;fill:#335c25;fill-opacity:1;stroke-width:0.1;stroke-opacity:0.876289"
         d="m 65.266216,125.82364 -1.55169,-9.52756 2.60878,5.02143 -1.05709,4.50613"
         id="path55" /><path
         style="opacity:1;fill:#335c25;fill-opacity:1;stroke-width:0.1;stroke-opacity:0.876289"
         d="m 61.908446,122.16131 3.11047,1.65557 0.2473,2.00676 -3.35777,-3.66233"
         id="path56"
         sodipodi:nodetypes="cccc" /><path
         style="opacity:1;fill:#335c25;fill-opacity:1;stroke-width:0.1;stroke-opacity:0.876289"
         d="m 70.587666,113.74707 2.75929,1.77005 h 3.11047 l -5.86976,-1.77005"
         id="path57" /><path
         style="opacity:1;fill:#335c25;fill-opacity:1;stroke-width:0.1;stroke-opacity:0.876289"
         d="m 41.950022,121.05527 -0.304655,-8.03336 2.908933,8.2956 -1.277096,7.41593 -1.327182,-7.67817"
         id="path58"
         sodipodi:nodetypes="ccccc" /><path
         style="opacity:1;fill:#335c25;fill-opacity:1;stroke-width:0.1;stroke-opacity:0.876289"
         d="m 48.262499,134.35236 -1.304393,-2.70912 0.618111,-6.67562 2.341854,5.17055 -1.655572,4.21419"
         id="path59" /><path
         style="opacity:1;fill:#335c25;fill-opacity:1;stroke-width:0.1;stroke-opacity:0.876289"
         d="m 65.266216,113.48209 3.16418,0.0666 1.60541,2.52488 z"
         id="path60" /><path
         style="opacity:1;fill:#335c25;fill-opacity:1;stroke-width:0.1;stroke-opacity:0.876289"
         d="m 67.828376,118.42372 -4.11385,-2.12764 1.30439,2.51071 2.80946,-0.38307"
         id="path61" /><path
         style="opacity:1;fill:#335c25;fill-opacity:1;stroke-width:0.1;stroke-opacity:0.876289"
         d="m 61.908446,122.16131 -1.749246,3.14155 1.147216,1.52416 0.60203,-4.66571"
         id="path62" /></g></g></svg>
