<?xml version="1.0" encoding="UTF-8" standalone="no"?>
<!-- Created with Inkscape (http://www.inkscape.org/) -->

<svg
   width="210mm"
   height="297mm"
   viewBox="0 0 210 297"
   version="1.1"
   id="svg1"
   xml:space="preserve"
   inkscape:export-filename="jumbofly1.svg"
   inkscape:export-xdpi="96"
   inkscape:export-ydpi="96"
   xmlns:inkscape="http://www.inkscape.org/namespaces/inkscape"
   xmlns:sodipodi="http://sodipodi.sourceforge.net/DTD/sodipodi-0.dtd"
   xmlns="http://www.w3.org/2000/svg"
   xmlns:svg="http://www.w3.org/2000/svg"><sodipodi:namedview
     id="namedview1"
     pagecolor="#ffffff"
     bordercolor="#111111"
     borderopacity="1"
     inkscape:showpageshadow="0"
     inkscape:pageopacity="0"
     inkscape:pagecheckerboard="1"
     inkscape:deskcolor="#d1d1d1"
     inkscape:document-units="mm"
     inkscape:zoom="1.8645874"
     inkscape:cx="247.77599"
     inkscape:cy="462.30067"
     inkscape:window-width="1500"
     inkscape:window-height="978"
     inkscape:window-x="-6"
     inkscape:window-y="-6"
     inkscape:window-maximized="1"
     inkscape:current-layer="svg1" /><defs
     id="defs1" /><g
     id="g61"
     transform="matrix(-1.1706428,0,0,1.1706428,233.44225,23.757727)"><path
       style="opacity:1;fill:#00377d;fill-opacity:1;stroke-width:0.1;stroke-opacity:0.876289"
       d="m 28.596283,67.627703 0.802703,6.30174 20.407609,41.576447 -5.758286,-15.16805 -8.027027,-24.081085 -1.705742,-4.414864 -4.314526,-4.414864 z"
       id="path26" /><path
       style="opacity:1;fill:#00377d;fill-opacity:1;stroke-width:0.1;stroke-opacity:0.876289"
       d="m 37.165134,79.688311 -2.347905,-10.455204 -0.903041,-10.63581 4.515205,3.210811 2.608783,6.92331 3.010133,12.241217 10.3348,28.997635 -4.576514,-10.83649 -4.052541,-3.010132 -1.705745,4.214192 z"
       id="path27" /><path
       style="opacity:1;fill:#00377d;fill-opacity:1;stroke-width:0.1;stroke-opacity:0.876289"
       d="m 54.383109,109.97027 -10.3348,-28.997635 -2.709122,-21.873649 0.401352,-6.822974 5.217568,5.016891 2.848488,10.936825 1.590677,17.057433 1.882119,12.040537 1.103718,12.642572"
       id="path28" /><path
       style="opacity:1;fill:#00377d;fill-opacity:1;stroke-width:0.1;stroke-opacity:0.876289"
       d="m 53.279391,97.327698 -1.882119,-16.204557 0.778402,-15.903546 3.110473,-7.926692 4.615543,5.819595 1.404728,6.421623 -4.214188,21.572635 z"
       id="path29" /><path
       style="opacity:1;fill:#00377d;fill-opacity:1;stroke-width:0.1;stroke-opacity:0.876289"
       d="m 59.90169,94.016554 -2.80946,-2.909798 4.214188,-21.572635 3.825282,-3.712501 3.689377,3.511825 -0.491011,10.635811 -3.056467,9.833107 z"
       id="path30" /><path
       style="opacity:1;fill:#00377d;fill-opacity:1;stroke-width:0.1;stroke-opacity:0.876289"
       d="m 68.330066,79.969256 3.417707,-7.525337 2.597224,-2.80946 1.996734,1.003379 3.263678,5.618917 -7.857636,14.850001 -6.616073,21.986854 2.496003,-11.45138 0.702363,-6.421626 -3.056467,-5.418241 z"
       id="path31" /><path
       style="opacity:1;fill:#00377d;fill-opacity:1;stroke-width:0.1;stroke-opacity:0.876289"
       d="m 79.605409,76.256755 2.822125,-1.304391 3.060303,1.304391 1.605404,6.220947 -8.729392,14.247971 -2.207432,-3.210809 -4.715878,2.608784 -6.308839,16.969962 6.616073,-21.986854 7.857636,-14.850001"
       id="path32" /><path
       style="opacity:1;fill:#00377d;fill-opacity:1;stroke-width:0.1;stroke-opacity:0.876289"
       d="m 87.093239,82.477702 3.010138,-0.50169 1.605407,0.50169 0.903039,1.80608 -0.200676,2.759292 -3.913175,6.47179 -8.629054,9.789376 -1.505069,-3.969781 -1.60891,0.139888 z"
       id="path33" /><path
       style="opacity:1;fill:#ffc805;fill-opacity:1;stroke-width:0.1;stroke-opacity:0.876289"
       d="m 77.46081,109.2679 2.408108,-5.96366 8.227703,-7.180592 -4.943732,8.881712 -5.692079,4.26254"
       id="path34" /><path
       style="opacity:1;fill:#0050b5;fill-opacity:1;stroke-width:0.1;stroke-opacity:0.876289"
       d="m 156.7277,170.17297 13.04392,3.81284 4.5152,2.10709 0.40135,1.10372 -0.70236,0.50169 -55.48683,-10.13413 -2.30777,-2.20743 40.53649,4.81622"
       id="path35" /><path
       style="opacity:1;fill:#00377d;fill-opacity:1;stroke-width:0.1;stroke-opacity:0.876289"
       d="m 190.84256,184.01959 -2.4081,-2.2576 -14.44865,-4.06368 -55.48683,-10.13413 2.30778,2.20744 z"
       id="path36" /><path
       style="opacity:1;fill:#00377d;fill-opacity:1;stroke-width:0.1;stroke-opacity:0.876289"
       d="m 185.42432,185.625 -10.73615,0.20068 -43.47287,-8.79917 -8.40179,-3.64273 z"
       id="path37" /><path
       style="opacity:1;fill:#004fb4;fill-opacity:1;stroke-width:0.1;stroke-opacity:0.876289"
       d="m 168.40106,184.55313 -0.73654,1.27255 -3.21081,1.00337 -6.42162,0.20068 -6.52195,-1.20405 -20.29484,-8.79917 36.7807,7.44463"
       id="path38" /><path
       style="opacity:1;fill:#ffffff;fill-opacity:1;stroke-width:0.1;stroke-opacity:0.876289"
       d="m 52.978377,159.33648 7.224324,6.22095 2.006759,4.41486 3.010135,-8.82972 -1.605407,-5.61892 -5.217567,-4.41487 -7.425,1.00338 -0.401351,3.41149 z"
       id="path39" /><path
       style="opacity:1;fill:#ffffff;fill-opacity:1;stroke-width:0.1;stroke-opacity:0.876289"
       d="m 49.56689,158.43344 1.906421,2.9098 0.50169,2.80946 -1.404731,1.80608 -2.006756,1.80608 -0.301014,3.01014 0.702365,2.70912 3.712499,3.01014 -0.301014,0.50168 -2.569755,-0.70236 -4.453893,-2.80946 -3.010135,-3.51183 -1.00338,-7.02364 0.401352,-3.41149 4.414867,-2.00676 z"
       id="path40" /><path
       style="opacity:1;fill:#000000;fill-opacity:1;stroke-width:0.1;stroke-opacity:0.876289"
       d="m 60.202701,165.55743 1.795934,3.95105 -4.458535,1.87019 h -5.534067 l -3.086306,-1.40638 4.044124,-2.10562 2.447761,-2.48323 0.1031,-3.86289"
       id="path41"
       sodipodi:nodetypes="cccccccc" /><path
       style="opacity:1;fill:#333333;fill-opacity:1;stroke-width:0.1;stroke-opacity:0.876289"
       d="m 48.919727,169.97229 -0.356213,-2.20743 2.006756,-1.80608 1.404731,-1.80608 -0.50169,-2.80946 -1.906421,-2.9098 3.411487,0.90304 2.536333,2.18407 -0.1031,3.86289 -2.447761,2.48323 z"
       id="path42" /><path
       style="opacity:1;fill:#335c25;fill-opacity:1;stroke-width:0.1;stroke-opacity:0.876289"
       d="m 111.32483,77.009288 -2.20744,5.217567 6.83618,-5.368075 5.35487,-5.919933 -9.98361,6.070441"
       id="path54" /><path
       style="opacity:1;fill:#335c25;fill-opacity:1;stroke-width:0.1;stroke-opacity:0.876289"
       d="m 123.51588,79.919086 -6.31267,13.595778 v -8.375385 l -8.08582,-2.912624 z"
       id="path55" /><path
       style="opacity:1;fill:#335c25;fill-opacity:1;stroke-width:0.1;stroke-opacity:0.876289"
       d="m 109.11739,82.226855 8.08582,2.912624 v 8.375385 l 6.31267,-13.595778 z"
       id="path56" /><path
       style="opacity:1;fill:#d90121;fill-opacity:1;stroke-width:0.1;stroke-opacity:0.876289"
       d="m 41.434546,158.35943 -1.135192,-4.25698 7.662553,-5.60245 10.784332,-1.98659 13.622317,3.68938 8.372048,-11.28354 -1.135193,-24.83235 3.547478,-9.08154 17.311691,-31.075915 0.87664,9.150284 -4.414869,10.435135 5.819589,-1.204055 -1.20405,5.819595 -5.217566,7.023646 v 1.00338 l 4.214186,-0.60203 -0.802699,5.61892 -4.816219,5.01689 5.618918,4.81622 -6.421618,5.21757 8.027028,5.21757 -4.414868,5.21756 3.210808,4.81622 -7.826348,2.00676 13.043918,8.2277 -9.231079,2.80946 13.645949,6.42162 9.23108,2.00676 6.02027,-0.60203 30.90405,7.82635 -40.53649,-4.81622 4.61555,4.41487 70.0358,14.24797 -0.60202,1.80608 -4.81622,-0.20067 -62.61081,-12.24122 28.69663,12.4419 -33.31217,-5.21757 -13.19797,4.81621 -20.515542,-8.2277 -13.043919,-8.42838 -6.220944,-0.20067 -3.010135,1.40472 3.010135,-8.82972 -1.605407,-5.61892 -5.217567,-4.41487 -7.425,1.00338 -0.401351,3.41149 2.408107,3.81283 -6.822971,-1.80608 -4.414867,2.00676 z"
       id="path1"
       sodipodi:nodetypes="cccccccccccccccccccccccccccccccccccccccccccccccccccc" /><path
       style="opacity:1;fill:#ad011b;fill-opacity:1;stroke-width:0.1;stroke-opacity:0.876289"
       d="m 72.368555,150.20279 -7.946351,-13.55393 -8.655846,-8.79774 -5.959763,-12.34523 5.108368,1.41899 3.831275,6.95306 6.385462,-10.78433 4.398873,-1.2771 -0.709496,5.67597 4.398875,-4.25697 0.425696,4.82457 -2.412286,5.25026 h 5.108369 l 0.2838,3.68938 3.547475,-0.49665 0.567598,12.41618 -8.372049,11.28354"
       id="path2" /><path
       style="opacity:1;fill:#00377d;fill-opacity:1;stroke-width:0.1;stroke-opacity:0.876289"
       d="m 100.46458,73.929443 17.53272,-28.777417 12.24121,-13.645946 1.20406,3.010136 -1.20406,6.622298 -28.89729,41.941215 z"
       id="path3" /><path
       style="opacity:1;fill:#00377d;fill-opacity:1;stroke-width:0.1;stroke-opacity:0.876289"
       d="m 130.23851,41.138514 9.43176,-11.07241 6.02027,-3.978267 v 3.978267 l -6.6223,13.279842 -37.72702,39.733783 z"
       id="path4" /><path
       style="opacity:1;fill:#00377d;fill-opacity:1;stroke-width:0.1;stroke-opacity:0.876289"
       d="m 139.06824,43.345946 9.43176,-6.622298 5.01689,-1.605405 0.60203,4.214188 -8.42838,9.030407 -48.764191,45.152026 4.414871,-10.435135 z"
       id="path5" /><path
       style="opacity:1;fill:#00377d;fill-opacity:1;stroke-width:0.1;stroke-opacity:0.876289"
       d="m 115.95357,76.858782 18.49913,-12.542228 15.85338,-7.023651 h 3.81284 l -1.40473,4.916557 -7.02365,10.234459 -43.54663,22.776687 0.60203,-2.909797 -5.819591,1.204055 18.644611,-16.856757"
       id="path6" /><path
       style="opacity:1;fill:#00377d;fill-opacity:1;stroke-width:0.1;stroke-opacity:0.876289"
       d="m 145.69054,72.443919 7.62567,0.602027 0.80271,3.210809 -4.41487,6.822974 -10.03378,5.418243 -17.05743,4.214188 -23.679735,8.93007 2.608785,-3.511826 0.90303,-4.364697 43.24562,-21.321788"
       id="path7" /><path
       style="opacity:1;fill:#00377d;fill-opacity:1;stroke-width:0.1;stroke-opacity:0.876289"
       d="m 139.67027,88.49797 6.02027,1.204055 4.01351,2.006759 -0.8027,3.51182 -5.8196,6.421626 -5.81959,3.31115 -8.42838,-2.00676 -19.66621,0.40135 -8.62906,2.20743 -4.214186,0.60203 v -1.00338 l 2.608781,-3.51182 23.679735,-8.930072 17.05743,-4.214188"
       id="path8" /><path
       style="opacity:1;fill:#00377d;fill-opacity:1;stroke-width:0.1;stroke-opacity:0.876289"
       d="m 100.53851,105.5554 -0.802699,5.61892 10.334799,-1.90642 23.78006,2.54861 7.12399,4.87639 0.60203,-5.41824 -4.31453,-6.32128 -8.42838,-2.00676 -19.66621,0.40135 z"
       id="path9" /><path
       style="opacity:1;fill:#00377d;fill-opacity:1;stroke-width:0.1;stroke-opacity:0.876289"
       d="m 94.91959,116.19121 13.63324,-1.53671 16.9698,2.83798 11.83573,5.95976 4.21833,-1.41899 -0.60203,-5.34035 -7.12399,-4.87639 -23.78006,-2.54861 -10.334799,1.90642 z"
       id="path10" /><path
       style="opacity:1;fill:#00377d;fill-opacity:1;stroke-width:0.1;stroke-opacity:0.876289"
       d="m 137.35836,123.45224 2.12848,4.82457 -1.84468,2.73284 -13.05473,-6.70601 -24.04892,-3.29621 -5.61892,-4.81622 13.63324,-1.53671 16.9698,2.83798 11.83573,5.95976"
       id="path11" /><path
       style="opacity:1;fill:#00377d;fill-opacity:1;stroke-width:0.1;stroke-opacity:0.876289"
       d="m 137.64216,131.00965 0.70949,4.64592 -3.68938,1.56089 -21.71056,-8.65585 -18.834818,-2.33561 6.421618,-5.21757 24.04892,3.29621 13.05473,6.70601"
       id="path12" /><path
       style="opacity:1;fill:#00377d;fill-opacity:1;stroke-width:0.1;stroke-opacity:0.876289"
       d="m 134.66227,137.21646 2.12849,3.12178 -0.1419,3.12178 -3.83127,1.13519 -4.96647,-0.56759 -10.64791,-3.54748 -17.266726,-6.42879 2.207436,-2.60878 -8.027028,-5.21757 18.834818,2.33561 21.71056,8.65585"
       id="path13" /><path
       style="opacity:1;fill:#00377d;fill-opacity:1;stroke-width:0.1;stroke-opacity:0.876289"
       d="m 117.20321,140.48014 9.3228,8.72222 4.91656,6.6223 -6.52196,0.20067 -6.67247,-3.81283 -17.30828,-10.73615 -3.210808,-4.81622 2.207432,-2.60878 17.266726,6.42879"
       id="path14" /><path
       style="opacity:1;fill:#00377d;fill-opacity:1;stroke-width:0.1;stroke-opacity:0.876289"
       d="m 106.15743,151.71081 19.66622,10.63581 -7.57551,-10.13412 -17.30828,-10.73615 -7.82635,2.00676 13.04392,8.2277"
       id="path15" /><path
       style="opacity:1;fill:#00377d;fill-opacity:1;stroke-width:0.1;stroke-opacity:0.876289"
       d="m 96.926349,154.52027 9.231081,-2.80946 19.66622,10.63581 -6.02027,0.60203 -9.23108,-2.00676 z"
       id="path16" /><path
       style="opacity:1;fill:#ffc805;fill-opacity:1;stroke-width:0.1;stroke-opacity:0.876289"
       d="m 49.806595,115.50589 -3.651189,-7.24137 -2.107097,-7.92668 1.705745,-4.214192 4.052541,3.010135 4.576514,10.836487 4.363129,13.90767"
       id="path17" /><path
       style="opacity:1;fill:#ffc805;fill-opacity:1;stroke-width:0.1;stroke-opacity:0.876289"
       d="m 54.383109,109.97027 -1.103718,-12.642572 2.107094,-3.812834 1.705745,-2.408108 2.80946,2.909798 -1.155452,29.861386 z"
       id="path18" /><path
       style="opacity:1;fill:#ffc805;fill-opacity:1;stroke-width:0.1;stroke-opacity:0.876289"
       d="m 58.746238,123.87794 6.385462,-10.78433 2.496003,-11.45138 0.702363,-6.421626 -3.056467,-5.418241 -5.371909,4.214191 -1.155452,29.861386"
       id="path19" /><path
       style="opacity:1;fill:#ffc805;fill-opacity:1;stroke-width:0.1;stroke-opacity:0.876289"
       d="m 65.1317,113.09361 3.198366,-9.14361 3.110473,-7.826352 4.715878,-2.608784 2.207434,3.210811 -8.833278,15.090835"
       id="path20" /><path
       style="opacity:1;fill:#ffc805;fill-opacity:1;stroke-width:0.1;stroke-opacity:0.876289"
       d="m 68.821077,117.49248 9.542772,-11.33505 1.505069,-2.85319 1.705742,-5.97654 -4.819721,2.146649 -7.224366,12.342161 -0.709496,5.67597"
       id="path21"
       sodipodi:nodetypes="ccccccc" /><path
       style="opacity:1;fill:#ffc805;fill-opacity:1;stroke-width:0.1;stroke-opacity:0.876289"
       d="m 73.219952,113.23551 4.240858,-3.96761 2.408108,-5.96366 -1.505069,2.85319 -9.542772,11.33505 4.398875,-4.25697"
       id="path22" /><path
       style="opacity:1;fill:#ffc805;fill-opacity:1;stroke-width:0.1;stroke-opacity:0.876289"
       d="m 82.427534,106.15743 -4.966724,3.11047 -4.240858,3.96761 0.425696,4.82457 5.959761,-3.97318 z"
       id="path23" /><path
       style="opacity:1;fill:#ffc805;fill-opacity:1;stroke-width:0.1;stroke-opacity:0.876289"
       d="m 76.341731,123.31034 3.263678,-9.22344 0.567597,12.41617 -3.547475,0.49665 -0.2838,-3.68938"
       id="path24" /><path
       style="opacity:1;fill:#ffc805;fill-opacity:1;stroke-width:0.1;stroke-opacity:0.876289"
       d="m 71.23336,123.31034 2.412288,-5.25026 5.959761,-3.97318 -3.263678,9.22344 H 71.23336"
       id="path25" /><path
       style="opacity:1;fill:#ffc805;fill-opacity:1;stroke-width:0.1;stroke-opacity:0.876289"
       d="m 100.46458,73.929443 8.76636,-14.388708 10.3,-2.861374 0.33689,3.266737 0.3369,3.266738 -18.86351,19.866893 z"
       id="path43"
       sodipodi:nodetypes="ccccccc" /><path
       style="opacity:1;fill:#ffc805;fill-opacity:1;stroke-width:0.1;stroke-opacity:0.876289"
       d="M 101.34122,83.079729 121.30844,70.938849 96.926349,93.514864 Z"
       id="path44" /><path
       style="opacity:1;fill:#ffc805;fill-opacity:1;stroke-width:0.1;stroke-opacity:0.876289"
       d="m 109.11739,82.226855 14.39849,-2.307769 -6.31267,13.595778 -18.270105,8.127366 2.608785,-3.511826 1.20405,-5.819595 -5.819591,1.204055"
       id="path45" /><path
       style="opacity:1;fill:#ffc805;fill-opacity:1;stroke-width:0.1;stroke-opacity:0.876289"
       d="m 115.95357,68.430404 -4.62874,8.578884 -9.98361,6.070441 14.61235,-15.652702"
       id="path46" /><path
       style="opacity:1;fill:#ffc805;fill-opacity:1;stroke-width:0.1;stroke-opacity:0.876289"
       d="m 117.20321,93.514864 11.63057,9.431756 -18.76317,6.32128 -10.334799,1.90642 0.802699,-5.61892 -4.214186,0.60203 v -1.00338 l 2.608781,-3.51182 z"
       id="path47" /><path
       style="opacity:1;fill:#ffc805;fill-opacity:1;stroke-width:0.1;stroke-opacity:0.876289"
       d="m 119.45219,106.10726 -3.88123,3.7125 1.46677,6.25373 -16.49922,4.93394 -5.61892,-4.81622 4.816221,-5.01689 10.334799,-1.90642 9.38158,-3.16064"
       id="path48" /><path
       style="opacity:1;fill:#ffc805;fill-opacity:1;stroke-width:0.1;stroke-opacity:0.876289"
       d="m 108.78812,118.54046 3.77485,4.11507 -9.02867,4.73727 -9.417408,-1.1678 6.421618,-5.21757 8.24961,-2.46697"
       id="path49" /><path
       style="opacity:1;fill:#ffc805;fill-opacity:1;stroke-width:0.1;stroke-opacity:0.876289"
       d="m 103.5343,127.3928 7.8407,10.67505 -10.43514,3.4085 -3.210808,-4.81622 4.414868,-5.21756 -8.027028,-5.21757 z"
       id="path50" /><path
       style="opacity:1;fill:#ffc805;fill-opacity:1;stroke-width:0.1;stroke-opacity:0.876289"
       d="m 106.15743,139.7721 3.43657,7.07232 -16.48049,-3.36131 7.82635,-2.00676 z"
       id="path51" /><path
       style="opacity:1;fill:#ffc805;fill-opacity:1;stroke-width:0.1;stroke-opacity:0.876289"
       d="m 101.35375,145.16376 4.80368,6.54705 -13.04392,-8.2277 z"
       id="path52" /><path
       style="opacity:1;fill:#335c25;fill-opacity:1;stroke-width:0.1;stroke-opacity:0.876289"
       d="m 104.84776,66.735089 10.9421,-4.625967 0.16371,6.321282 4.25116,-5.217568 -0.33689,-3.266738 -0.3369,-3.266737 -10.3,2.861374 z"
       id="path53"
       sodipodi:nodetypes="cccccccc" /><path
       style="opacity:1;fill:#335c25;fill-opacity:1;stroke-width:0.1;stroke-opacity:0.876289"
       d="m 109.11739,82.226855 14.39849,-2.307769 -6.31267,13.595778 v -8.375385 l -8.08582,-2.912626"
       id="path57" /><path
       style="opacity:1;fill:#335c25;fill-opacity:1;stroke-width:0.1;stroke-opacity:0.876289"
       d="m 123.01849,98.230742 5.81529,4.715878 -9.38159,3.16064 4.99335,-4.46503 z"
       id="path58" /><path
       style="opacity:1;fill:#335c25;fill-opacity:1;stroke-width:0.1;stroke-opacity:0.876289"
       d="m 115.57096,109.81976 6.64134,7.11911 -5.17457,-0.86538 -1.46677,-6.25373"
       id="path59" /><path
       style="opacity:1;fill:#335c25;fill-opacity:1;stroke-width:0.1;stroke-opacity:0.876289"
       d="m 124.14298,104.52694 -8.57202,5.29282 3.88123,-3.7125 z"
       id="path60" /><path
       style="opacity:1;fill:#335c25;fill-opacity:1;stroke-width:0.1;stroke-opacity:0.876289"
       d="m 108.78812,118.54046 6.78284,-3.03457 1.46677,0.5676"
       id="path61" /></g></svg>
